<?xml version="1.0" standalone="no"?>
<!DOCTYPE svg PUBLIC "-//W3C//DTD SVG 20010904//EN"
 "http://www.w3.org/TR/2001/REC-SVG-20010904/DTD/svg10.dtd">
<svg version="1.0" xmlns="http://www.w3.org/2000/svg"
 width="74.000000pt" height="74.000000pt" viewBox="0 0 74.000000 74.000000"
 preserveAspectRatio="xMidYMid meet">
<metadata>
Created by potrace 1.11, written by Peter Selinger 2001-2013
</metadata>
<g transform="translate(0.000000,74.000000) scale(0.100000,-0.100000)"
fill="#000000" stroke="none">
<path d="M468 578 c-3 -7 -4 -34 -3 -60 1 -29 -2 -49 -9 -50 -6 0 -15 -2 -21
-3 -5 -2 -18 -3 -27 -4 -15 -1 -29 -32 -43 -91 -10 -45 -50 -160 -55 -160 -4
0 -11 19 -17 43 -27 104 -56 193 -68 206 -11 11 -15 10 -25 -8 -6 -12 -13 -32
-15 -43 -3 -12 -11 -42 -19 -67 -8 -25 -20 -66 -26 -90 -11 -44 -26 -46 -35
-5 -2 10 -17 62 -33 114 -21 71 -33 96 -46 98 -13 3 -17 -1 -14 -9 3 -8 25
-76 48 -151 57 -182 64 -182 116 -7 27 90 41 125 46 112 14 -35 68 -219 68
-231 0 -7 9 -12 19 -12 15 0 26 24 60 128 48 148 52 156 77 148 17 -5 19 -17
20 -120 0 -98 3 -118 18 -135 22 -24 86 -30 86 -7 0 8 -11 14 -26 14 -14 0
-30 4 -35 9 -6 6 -11 88 -11 202 0 149 -3 191 -13 191 -7 0 -15 -6 -17 -12z"/>
<path d="M712 488 c-6 -6 -40 -13 -74 -14 -91 -2 -92 -3 -112 -17 -16 -12 -13
-16 33 -41 39 -21 59 -26 81 -21 29 6 70 50 83 88 7 20 5 21 -11 5z"/>
</g>
</svg>
