<svg version="1.1" id="Layer_1" xmlns="http://www.w3.org/2000/svg" xmlns:xlink="http://www.w3.org/1999/xlink" x="0px" y="0px"
	 viewBox="0 0 539.4 460.2" style="enable-background:new 0 0 539.4 460.2;" xml:space="preserve" width="65px" height="55px">
<style type="text/css">
	.st0{fill:#009EE0;}
</style>
<path class="st0" d="M377.6,346.5c-35.7-0.7-61.5-30-99.4-19.7c-5.7,5-12.9,0.7-19.3-0.7c-46.1-9.6-77.5,40.7-122.9,14.7
	c7.9,8.2,17.5,12.9,27.2,16.8c25.7,8.6,50.7-3.9,70-20c7.9-6.1,20.4-10,28.6-5.4c-17.9,8.2-34.3,20.4-49,35.4l7.5,5.7l23.2-22.5
	c8.9-6.8,17.9-14.7,28.9-16.4c17.5,8.9,32.9,23.2,47.9,39l7.9-7.1c-15-14.3-31.4-25.4-49-34v-0.7c25.4-7.5,38.9,20,60.8,24.3
	c22.5,8.2,47.5,1.1,64-16.1C395.8,343.2,387.2,346.8,377.6,346.5 M144.9,276c10,14.7,13.9,35,32.5,43.3c4.3,2.5,11.4,1.8,13.9,5.7
	c-5.7-0.4-11.1-1.1-16.4-2.5c-26.1-4.3-55.8,0.7-75.8-18.2l8.9,11.1c27.2,32.5,75,18.9,107.9,10C186.4,323.2,169.2,291.4,144.9,276z
	 M394,274.2c-23.6,15.4-40,48.6-69.3,50.4l46.8,9.6c27.9,4.6,54.3-9.6,68.6-31.1c-7.5,6.4-15.7,10-25,12.1
	c-21.4,3.9-44.7,4.6-66.1,7.9l1.1-0.7C375.4,320.7,385.1,292.1,394,274.2z M271.8,254.2c3.2,5.7,1.4,13.9,1.8,21.1l19.3-2.9
	c-2.9-1.4-6.4-1.4-8.6-5c-3.2-3.2-1.1-7.5-0.7-10.7C279.7,255.7,275,257.1,271.8,254.2z M182.8,248.5L166.4,266
	c28.6,24.7,61.5,39,99.7,40.8l-1.8-2.5c0.4-7.2-1.1-15,1.1-21.4C235,282.1,206,270.7,182.8,248.5z M356.1,246.7
	c-6.1,7.1-13.6,13.6-21.4,17.9c-7.1,8.2-14.7,19.7-25.7,22.2c-8.9-13.6-23.2-1.1-35.4-4.3v25c37.5-3.9,72.5-16.1,99.7-42.9
	L356.1,246.7z M209.6,231.3c1.1,2.9,7.5,6.8,2.9,10c-7.1-1.1-12.1,2.9-18.2,3.9c-2.1-1.4-4.6-4.3-7.2-3.2
	c22.2,20.4,49.7,30.7,78.3,33.6c-2.1-7.1-0.7-15.4-1.1-23.2l-3.9,0.7C241.4,251,223.9,244.2,209.6,231.3z M113.8,231.3
	c7.5,25.4,4.7,55.4,30.4,72.9c-7.5-1.1-13.6-7.9-19.7-12.5c-20-13.2-47.5-18.6-59.7-40.8c1.4,7.1,5,13.6,8.9,20
	c19.7,30.7,53.2,39.3,85.4,42.9C134.2,290.7,139.6,254.2,113.8,231.3z M425.5,228.5c-24.7,23.9-21.4,60.1-43.6,84l36.8-7.9
	c24.7-7.9,51.5-32.9,56.1-56.8c-12.9,22.5-37.2,28.6-56.5,40.4c-8.2,3.6-13.9,13.2-22.5,14.3C421.5,284.6,418.3,253.5,425.5,228.5z
	 M334,225.3l-3.2,4.3c-1.8,5.7,3.9,4.6,6.4,7.9c3.9,2.5,1.4,6.1-1.4,8.2c-4.6,3.6,4.3,6.8-1.1,10.4c4.6-4.6,11.1-7.9,15.4-13.9
	c-2.2,1.8-3.9-0.7-5.4-2.1C344.4,233.9,336.8,230.6,334,225.3z M226.1,205.3l-15.7,16.4c13.2,11.4,29.7,18.6,45.8,21.4
	c-4.3-2.1-9.3-7.1-10.4-12.1c1.8-1.1,2.1-2.9,2.5-4.6c1.8-3.6,5.7-6.1,9.3-6.8C245,221.7,234.6,213.1,226.1,205.3z M295.4,207
	l-4.3-1.8l1.1,2.1c-2.1,4.3-4.3-1.4-6.4,0.4c-2.5,0.7-5.7-1.1-8.2-2.5c-6.4,0-7.1,9.7-14.3,8.9c4.6,6.4,8.9-3.2,15,0
	c0.7,6.1,6.1,2.9,10,4.3c0.7-2.5,4.3-5,7.2-4.7c3.9-2.5,7.1-5.4,7.1-10.4C299.3,202.4,297.5,205.3,295.4,207z M299,194.9
	c-0.4,3.2-4.3,3.2-6.4,4.6C291.8,196.7,295.7,194.2,299,194.9z M97.8,186.3c1.1,21.1-11.4,40.8-2.1,61.1c1.4,5,6.1,8.9,6.1,13.9
	c-12.9-24.7-44-42.5-52.2-68.6c-5.7,41.8,38.6,69,67.2,85.4C102,251,110.6,213.8,97.8,186.3z M441.2,183.5
	c-11.8,28.6-3.9,65.4-18.2,92.9c30.7-17.9,72.9-46.8,66.8-88.3v0.7c-7.5,27.5-39,44-50.8,69.7c-0.4-0.4-1.4,0.4-1.4-0.4
	C454.8,237.1,442.6,207.4,441.2,183.5z M247.1,183.5l-14.3,16.1c8.6,7.1,17.9,11.4,28.2,12.9V207c1.1-2.5,3.6-2.9,6.1-2.5
	c-3.6-3.9-0.4-8.9,0-12.9C260,193.5,251.8,188.8,247.1,183.5z M335.1,186.3c-1.1-0.7-2.1-1.8-2.1-2.9c-2.9,3.2-3.6,10-9.6,9.3
	c-0.7,4.3-5.7,3.6-7.1,5.7c7.5,2.9,5.4-7.1,12.5-6.1c7.1,7.1-0.7,15.4-3.2,22.2c-7.9,0.7-14.7-4.3-23.6-3.6v1.4
	c9.3,1.1,16.4,9.3,26.4,4.3c0.4-2.9,1.8-5.7,4.3-7.9c1.8,1.4,1.1,4.6,2.8,5.4c7.9-9.7,14.3-19.7,16.8-31.8
	C346.1,185.6,339,180.6,335.1,186.3z M305.8,190.6c1.1,0,2.1,0.4,2.5-0.4c1.4-4.3-3.6-4.3-4.3-7.9
	C297.5,184.5,305.4,186.7,305.8,190.6z M242.9,178.1l-3.2-1.1l-3.2,5.4L242.9,178.1z M215.3,170.9c2.5,8.2,6.4,16.1,11.4,23.2
	l6.4-7.5c0.7-3.6-1.1-6.4-2.1-9.3l-0.4,4.3c-1.8-1.8-5.7-2.9-5-6.4C221.8,174.5,219.6,171.7,215.3,170.9z M182.5,160.9
	c1.1,5.7,2.5,11.4,2.1,17.2c-0.4-2.1,5.4-5.4,1.4-7.5c0.7-3.2,0.4-7.1,3.6-8.6C186.7,161.6,184.6,162.7,182.5,160.9z M175,160.9
	c-7.5,1.1-15.7,2.1-23.2,0.7l5.4,32.2c3.2-2.9,2.9-8.9,3.9-13.6c0.7-6.1,7.9-5,10-10.7c2.5-1.1,3.9,2.1,5.7,3.2
	C174.2,169.5,174.2,164.9,175,160.9z M144.2,160.9c-7.5,1.8-15.7,0.7-23.6,1.1c1.8,37.5,15,70.1,39.7,98.3l17.9-17.2
	c-4.3-6.8-12.9-8.2-14.7-15.7c-2.1,3.6-5.4-0.7-7.5-2.2c-1.1-6.4-10-5.7-11.8-11.1c-3.6,5.7-5-5-8.9-2.5c-3.2-2.1-2.5-5.7-4.3-8.2
	c-1.1-4.3-1.1-9.3,2.5-12.5c1.4-1.1,3.6-1.4,4.3,0.7c2.5-0.4,2.5-1.4,4.3-3.2c3.6-3.6,4.6,2.9,7.1,3.6
	C145.6,182.4,144.2,171.3,144.2,160.9z M364.7,160.6l-1.1,14.7c1.1,1.8,5.4,4.7,1.4,6.4c-1.4,0.4-2.1-0.4-3.2-0.7
	c-4.3,14.3-10.7,28.6-22.2,39.7c2.5,2.1,4.6,4.6,7.1,6.1l1.4-2.9c5.7,0.7,6.4,8.9,7.9,13.2c13.9-15,22.9-32.2,27.9-51.1
	c2.9-7.9,1.1-17.5,4.6-25C380.8,161.6,371.9,162,364.7,160.6z M394.7,160.2c0.7,31.1-11.8,59-33.2,81.5l17.5,17.5
	c25.7-27.9,38.6-62.6,40.4-98.7C411.2,160.6,402.2,163.1,394.7,160.2z M342.6,160.2l3.6,3.9c-0.7,6.1,7.5,8.6,8.2,12.9l2.5-15.4
	C352.2,160.9,346.5,162.7,342.6,160.2z M206,149.8c-2.5,0.4-5.7-0.7-7.5,1.1c-0.7,2.9,1.1,5.7,2.2,8.6c0,2.9-3.2,1.8-5,2.1l-0.4,2.9
	c-0.7,2.9-3.9,2.9-6.1,3.6l0.7,7.9c4.3,4.6,7.2,9.3,6.4,15.7c3.2,5.4,0.7,12.9,5.4,17.9c2.1,4.3-0.7,6.8-2.9,10l2.1,0.7l20-20
	c-7.9-9.3-12.9-19.3-15.7-30.7l-2.1-0.7c-0.4,2.9-0.7,5.7-2.5,7.9l-3.2-2.9c-1.8-1.8,1.8-2.1,2.5-2.1c1.4-2.5-1.1-5.7,0.4-7.9
	c1.4,1.4,2.9,3.2,5,2.5c2.9-1.4,2.9-5.4,2.1-7.5L206,149.8z M262.9,130.5l1.1,1.1c5.4,7.5-5.7,9.6-9.3,11.8
	c-7.1,3.2-5,11.8-7.1,17.5c-3.6,1.1-2.9-3.9-4.6-5.4c-0.4,0.4-1.8,2.5-2.5,0.4c-4.6-2.1-5,3.6-6.1,6.1c-0.4,1.4-2.5,0-1.8,2.1
	c5.4,0.7,11.1-3.2,15.4-0.4c1.8-1.4-0.4-5.4,3.2-5.4c2.1,0.4,0.7,2.9,2.1,3.9c-3.6,2.1-2.1,6.1-5,8.2c-0.4-0.4-0.7-1.4-1.4-1.4v1.4
	c0.4,0.7,0.7,2.5,2.2,2.1c1.1-4.3,7.9-3.9,5.7-10c3.6-1.1,8.9-3.2,12.2,0c2.5,4.3-1.8,6.4-1.8,10.4c-1.1,5.7-8.6,3.6-10.4,6.1
	c3.2,1.8,6.1,3.9,10,3.9c3.2,0,11.4,2.5,10-3.9c0.7-6.1,5.7-4.3,10-5.4c1.1-2.5,3.9-6.8,1.1-8.9c2.1-6.4-10-9.3-2.1-15.4
	c-2.1-0.7-1.1-3.2-1.4-4.7h-0.7c-3.9-8.9-12.2-2.5-16.4-11.1c-0.7-4.3,5.7-2.1,5.4-2.9C268.6,129.1,264.7,129.5,262.9,130.5z
	 M53.1,126.6c-5.4,15-4.3,34-0.7,49.3c3.2,20.4,22.5,34.7,32.5,51.5l-0.3-2.5c-1.8-31.8,17.2-58.6,14.6-89
	c-3.6,14.3-16.1,25.4-19.7,39.7c-4.3,10-3.2,23.6-1.1,33.6h-0.7c-3.6-6.1-3.6-13.6-5.4-20.4C68.1,167.4,52,150.2,53.1,126.6z
	 M485.2,123.4c1.8,30.7-21.1,51.1-21.8,80.4l-2.1,2.9l-0.7-0.7c11.8-27.9-11.8-48.6-20.7-71.9l2.1,23.2
	c2.5,22.9,17.5,42.2,13.2,66.8l24.3-32.2C489.8,172.7,493.7,144.5,485.2,123.4z M230.7,117.7c2.9,1.1,6.1,1.4,8.2,3.9
	c-0.4,1.1-2.5,2.5-0.4,3.6c1.8,0.4,1.8-1.1,2.9-1.8c2.5,3.9,5.4-1.1,8.2,2.5c6.4,0.7,3.6-7.9,8.6-10l0.4,0.7
	c-0.7,0.4-0.4,1.4-0.4,2.1c2.9,0.7,5.4-2.1,7.1,0.4c-1.1-5.4-1.4-11.1-1.1-17.2C251.4,103.4,239.6,108,230.7,117.7z M272.9,100.9
	l1.1,16.8c6.1,5,9.3-2.5,14.3-4.3l1.4,1.4c1.1,7.5-6.8,10-10.7,13.6c4.6-5.4,7.9,5.7,13.2,1.8c1.1-6.4,10.4-5.4,11.4-12.2
	c-1.1,1.1-2.5,0.4-3.2-0.7l4.6-4.3C295,107,284.7,102.7,272.9,100.9z M205,98.4c-13.2,16.1-20.7,34.7-22.5,55.4l9.6-0.7
	c-0.7-2.5-1.8-5.4-0.7-8.2c3.2-4.3,3.6-13.2,11.4-12.5c0.4-5.7,7.5-4.6,10-10.4c5,0,5.4-6.1,10.4-7.1L205,98.4z M332.9,97.7
	l-20.7,21.4c-1.8,1.4-2.1,4.3,0,5c0-5.7,6.4-7.9,11.1-6.4c6.4,0,11.8,2.9,14.6,8.2c-0.7,1.4-1.1,3.2-0.4,4.6
	c2.1,0.7,3.2-1.4,4.6-2.5c4.3-0.7,5.7,3.9,8.6,6.1c-2.9,1.8-3.2,5.4-3.2,8.6h1.1c3.6-0.4,4.6-4.7,5.7-7.9
	c-0.7-8.2-6.4-13.2-13.2-17.2l1.1-2.1C345.4,108,336.5,103.4,332.9,97.7z M183.2,75.8c-18.6,22.5-28.9,48.3-31.4,77.6
	c8.2,0.7,16.1-1.8,23.6,0.4l-0.7-2.9c2.1-22.2,9.6-41.8,25.4-57.9L183.2,75.8z M272.9,70.1c1.4,7.1,0.4,15.4,0.7,23.2
	c13.9,0.7,27.9,5.4,37.5,15.4l17.2-16.4C312.2,79.1,293.6,72.3,272.9,70.1z M264.7,69.8c-20,2.9-39,10-53.6,23.6l17.1,15.4
	c9.7-8.9,22.5-16.1,36.5-15.4C263.9,85.1,263.9,78,264.7,69.8z M74.5,68.7L66,82.6c-15.7,27.5-0.4,59.7,8.2,85.4
	c6.8-27.2,34.7-45.8,37.5-74.4c-10.4,13.6-27.5,23.6-33.2,39c-2.9,4.7-1.1,11.8-4.6,15.4c-0.4-7.5,0.7-15.7,0.7-23.9
	C74.2,105.9,68.1,86.2,74.5,68.7z M461.9,64.4c11.1,25.4-3.2,53.3,3.9,80.1c-0.4,0-0.7,1.1-1.4,0.7c0.4-24-25-36.8-38.6-54.3
	c2.9,29.7,34.7,47.9,40,76.1c1.1-11.4,5.4-22.2,9.7-32.5C483.4,110.5,478,83,461.9,64.4z M161.4,53.3
	c-25.4,28.6-39.3,61.5-40.7,99.7l23.6,0.4c0.4-31.1,12.9-59.3,34-82.6C172.4,65.1,165.7,59.4,161.4,53.3z M376.5,53
	c-5.4,6.1-11.1,13.6-17.5,17.5c7.9,7.9,15.7,16.1,21.4,25.4c7.5,18.2,15.4,36.5,14.6,57.6c7.5-1.8,16.1-0.4,23.9-1.4
	C417.3,114.8,403,80.1,376.5,53z M339.7,39.7c0.7,2.1,4.3,5.4,6.8,6.8c0.4-0.4,1.1-0.7,1.1-1.4C348.3,40.8,342.9,39.7,339.7,39.7z
	 M264.3,39.7c-28.6,1.8-54,12.1-75.4,30.7l16.4,16.8c16.4-15.7,36.8-23.9,59-25V39.7z M272.5,38.7c2.1,7.1,1.1,15.7,0.7,23.2
	c18.2,0.7,35.7,7.1,51.1,17.5l-3.6-4.6c3.2-2.9-3.2-5-0.7-7.5c2.9,2.5,4.6,5.4,7.1,7.9c2.1-1.1,3.9,1.8,5.7,2.9
	c1.4,10.7,9.6,16.5,13.9,26.1c2.1,0.4,3.9-0.4,5.4-1.8c3.9,1.4-0.4,3.9,0.4,6.1l2.5-0.4c3.2,2.1-2.9,2.9-0.7,5
	c7.9,2.9,3.6,11.4,5.4,18.6c-2.9,5.4-3.9,13.6-11.1,15c-0.4,2.1,1.8,7.9-3.2,6.4l12.1-0.7c-4.6-5.7,1.4-12.9,3.2-18.6
	c0.7-0.7,1.8-2.9,2.9-1.4c-3.6,7.9,3.2,12.5,1.4,20.7l22.5-0.7c-2.2-13.6-3.6-29.3-10-41.8c-7.5,3.9-8.2-6.4-12.9-9.7
	c-5.4-2.5-12.5-4.3-14.3-10.7c-11.1,0.7-5-11.8-11.4-16.1c-2.9-0.7-5,1.1-7.1,2.2c-1.1-3.9-5-7.2-2.5-11.8
	c-6.8-3.2-1.8-10.4-9.3-13.6C305,44.4,289,40.8,272.5,38.7z M107.8,37.6c-5.4,2.5-10.7,5.4-15,10.7c-18.6,16.8-11.1,45-11.8,67.2
	c14.7-22.5,47.2-34.3,50.4-62.9c-7.9,13.6-23.2,19.7-34.3,30.7c-4.6,5.4-7.9,11.8-11.1,16.4l-0.7-0.4
	C94.9,79.4,91.7,54.4,107.8,37.6z M429,35.1l7.9,10c6.1,17.2,9.3,35.4,15,51.5h-0.7c-7.5-21.8-32.9-27.2-45-45.4
	c2.5,29.3,37.2,38.3,51.1,61.5c-1.4-14.7,2.9-30.4-0.4-45C453.7,54,442.6,39.4,429,35.1z M290.4,20.4c-4.3,2.1-9.3,4.3-13.6,5
	c1.4,2.5,3.9,3.2,6.8,3.6c6.1-3.6,14.7,1.8,18.9-4.6C299.3,20.8,295,20.4,290.4,20.4z M149.6,16.5l-12.1,5
	c-20.7,7.5-33.6,29-36.5,49C122.4,58.3,132.8,34.4,149.6,16.5z M385.4,14.4l8.2,8.2c11.1,16.8,26.4,33.6,42.9,46.1l-4.7-15.4
	C426.2,33.3,404.4,19,385.4,14.4z M166,48.7l17.9,16.8c22.9-21.1,49.3-33.2,80.4-34.7c0-6.8-2.2-15.7,0-22.9
	C226.1,8.6,193.2,24.7,166,48.7z M272.9,7.2c1.8,6.8-0.4,15,0.4,20.7l0.7-0.7c0.7-1.1,1.4,0,1.8,0.4c0.7,1.8,1.1,2.5-0.4,3.9
	c18.9-0.4,36.1,5.7,51.8,14.7c3.6-2.1,8.2-3.6,11.8-1.8c7.5,4.3,14.3,11.4,17.9,19.3c2.5-6.1,9.7-11.8,14.7-15.7
	C343.6,21.9,310,9.7,272.9,7.2z M404.4,78c28.9,44.3,29.3,115.5-0.4,159.4c-32.5,51.8-86.5,80.8-147.6,75.8
	c-55.4-2.1-108.3-41.5-130.8-92.6C102.4,171.3,111,103,144.9,61.5C186.4,6.9,256.1-12.8,320,8.3C352.9,19.7,386.5,45.5,404.4,78z"/>
<path class="st0" d="M507.3,446.5l5-0.4c0.2,2,0.8,3.7,1.7,5c0.9,1.3,2.2,2.3,4.1,3.1c1.8,0.8,3.9,1.2,6.2,1.2c2,0,3.8-0.3,5.4-0.9
	c1.6-0.6,2.7-1.4,3.5-2.5c0.8-1.1,1.1-2.2,1.1-3.5c0-1.3-0.4-2.4-1.1-3.3c-0.7-0.9-1.9-1.7-3.6-2.4c-1.1-0.4-3.5-1.1-7.2-2
	c-3.7-0.9-6.3-1.7-7.8-2.5c-1.9-1-3.4-2.3-4.3-3.8c-0.9-1.5-1.4-3.2-1.4-5c0-2,0.6-3.9,1.7-5.7c1.2-1.8,2.8-3.1,5.1-4
	c2.2-0.9,4.7-1.4,7.4-1.4c3,0,5.6,0.5,7.9,1.4c2.3,1,4,2.4,5.3,4.2c1.2,1.9,1.9,4,2,6.4l-5.1,0.4c-0.3-2.5-1.2-4.5-2.8-5.8
	c-1.6-1.3-3.9-2-7-2c-3.2,0-5.6,0.6-7.1,1.8c-1.5,1.2-2.2,2.6-2.2,4.3c0,1.5,0.5,2.6,1.6,3.6c1,0.9,3.7,1.9,8.1,2.9
	c4.3,1,7.3,1.8,8.9,2.6c2.3,1.1,4.1,2.5,5.2,4.1c1.1,1.7,1.7,3.6,1.7,5.7c0,2.2-0.6,4.2-1.8,6.1c-1.2,1.9-3,3.4-5.3,4.4
	c-2.3,1.1-4.9,1.6-7.8,1.6c-3.7,0-6.7-0.5-9.2-1.6c-2.5-1.1-4.4-2.7-5.8-4.8C508.1,451.6,507.4,449.2,507.3,446.5 M464.6,459.5
	v-40.4h5.5l21.2,31.7v-31.7h5.1v40.4h-5.5l-21.2-31.7v31.7H464.6z M419.9,439.9c0,4.9,1.3,8.7,3.9,11.5c2.6,2.8,5.9,4.2,9.8,4.2
	c4,0,7.3-1.4,9.9-4.2c2.6-2.8,3.9-6.8,3.9-12c0-3.3-0.6-6.1-1.7-8.6c-1.1-2.5-2.7-4.4-4.9-5.7c-2.1-1.3-4.5-2-7.2-2
	c-3.8,0-7,1.3-9.8,3.9C421.3,429.5,419.9,433.8,419.9,439.9z M414.4,439.8c0-6.7,1.8-11.9,5.4-15.7c3.6-3.8,8.2-5.7,13.9-5.7
	c3.7,0,7.1,0.9,10.1,2.7c3,1.8,5.3,4.3,6.8,7.5c1.6,3.2,2.3,6.8,2.3,10.8c0,4.1-0.8,7.8-2.5,11c-1.7,3.2-4,5.7-7,7.3
	c-3,1.7-6.3,2.5-9.8,2.5c-3.8,0-7.2-0.9-10.2-2.8c-3-1.8-5.3-4.3-6.8-7.5C415.2,446.7,414.4,443.4,414.4,439.8z M398.1,459.5v-40.4
	h5.3v40.4H398.1z M367.1,459.5v-35.6h-13.3v-4.8h32v4.8h-13.4v35.6H367.1z M322.1,442.9h13.7l-4.2-11.2c-1.3-3.4-2.2-6.2-2.9-8.4
	c-0.5,2.6-1.2,5.2-2.2,7.7L322.1,442.9z M310.5,459.5l15.5-40.4h5.8l16.5,40.4h-6.1l-4.7-12.2h-16.9l-4.4,12.2H310.5z M268.2,459.5
	v-40.4h5.5l21.2,31.7v-31.7h5.1v40.4h-5.5l-21.2-31.7v31.7H268.2z M205.3,454.7h8.6c2.7,0,4.8-0.2,6.3-0.7c1.5-0.5,2.7-1.2,3.6-2.1
	c1.3-1.3,2.3-3,3-5.1c0.7-2.1,1.1-4.7,1.1-7.8c0-4.2-0.7-7.5-2.1-9.7c-1.4-2.3-3.1-3.8-5.1-4.6c-1.4-0.6-3.7-0.8-6.9-0.8h-8.5V454.7
	z M200,459.5v-40.4h13.9c3.1,0,5.5,0.2,7.2,0.6c2.3,0.5,4.3,1.5,5.9,2.9c2.1,1.8,3.7,4.1,4.8,6.9c1.1,2.8,1.6,6,1.6,9.6
	c0,3.1-0.4,5.8-1.1,8.1c-0.7,2.4-1.6,4.3-2.8,5.9c-1.1,1.6-2.3,2.8-3.7,3.7c-1.3,0.9-2.9,1.6-4.8,2c-1.9,0.5-4,0.7-6.5,0.7H200z
	 M154.8,459.5v-40.4H184v4.8h-23.8v12.4h22.3v4.7h-22.3v13.7h24.8v4.8H154.8z M124.6,459.5v-35.6h-13.3v-4.8h32v4.8h-13.4v35.6
	H124.6z M93.6,459.5v-40.4h5.3v40.4H93.6z M46,459.5v-40.4h5.5l21.2,31.7v-31.7h5.1v40.4h-5.5l-21.2-31.7v31.7H46z M26.4,419.1h5.3
	v23.3c0,4-0.5,7.3-1.4,9.7c-0.9,2.4-2.6,4.3-5,5.8c-2.4,1.5-5.5,2.2-9.4,2.2c-3.8,0-6.9-0.6-9.3-2c-2.4-1.3-4.1-3.2-5.1-5.7
	c-1-2.5-1.5-5.8-1.5-10.1v-23.3h5.3v23.3c0,3.5,0.3,6.1,1,7.7c0.6,1.7,1.8,2.9,3.4,3.8c1.6,0.9,3.5,1.4,5.8,1.4
	c3.9,0,6.7-0.9,8.4-2.7c1.7-1.8,2.5-5.2,2.5-10.3V419.1z"/>
</svg>
