<svg xmlns:dc="http://purl.org/dc/elements/1.1/" xmlns:cc="http://creativecommons.org/ns#" xmlns:rdf="http://www.w3.org/1999/02/22-rdf-syntax-ns#" xmlns:svg="http://www.w3.org/2000/svg" xmlns="http://www.w3.org/2000/svg" version="1.1" id="svg3708" viewBox="0 0 335.85305 81.855186" height="50px" width="207px">
  <defs id="defs3710"/>
  <metadata id="metadata3713">
    <rdf:RDF>
      <cc:Work rdf:about="">
        <dc:format>image/svg+xml</dc:format>
        <dc:type rdf:resource="http://purl.org/dc/dcmitype/StillImage"/>
        <dc:title/>
      </cc:Work>
    </rdf:RDF>
  </metadata>
  <g transform="translate(-18.728674,-442.73383)" id="layer1">
    <g transform="matrix(1.5287902,0,0,1.5287902,-9.9035393,-234.11331)" id="g3780">
      <g id="g138" transform="matrix(1.25,0,0,-1.25,80.562182,459.32479)">
        <path d="M 0,0 C -0.187,0.384 -0.223,0.712 -0.105,0.984 0.012,1.255 0.29,1.391 0.731,1.391 l 3.597,0 c 0.244,0 0.457,-0.065 0.64,-0.197 C 5.151,1.063 5.279,0.876 5.354,0.632 5.514,0.136 5.689,-0.422 5.881,-1.04 6.073,-1.658 6.275,-2.293 6.486,-2.944 6.696,-3.596 6.905,-4.242 7.111,-4.884 7.317,-5.525 7.507,-6.116 7.68,-6.654 7.854,-7.193 8.008,-7.662 8.144,-8.06 8.28,-8.458 8.381,-8.741 8.446,-8.91 l 2.979,9.542 c 0.122,0.3 0.261,0.501 0.415,0.605 0.155,0.103 0.372,0.154 0.654,0.154 l 3.696,0 c 0.271,0 0.477,-0.033 0.618,-0.098 0.14,-0.066 0.234,-0.155 0.281,-0.267 0.047,-0.113 0.056,-0.242 0.028,-0.387 -0.028,-0.145 -0.075,-0.297 -0.14,-0.456 l -6.69,-16.035 c -0.103,-0.169 -0.225,-0.312 -0.365,-0.429 -0.141,-0.117 -0.352,-0.176 -0.633,-0.176 l -1.672,0 c -0.375,0 -0.639,0.054 -0.794,0.162 -0.155,0.108 -0.269,0.255 -0.344,0.443 L 0,0 Z" style="fill:#26588d;fill-opacity:1;fill-rule:nonzero;stroke:none" id="path140"/>
      </g>
      <g id="g142" transform="matrix(1.25,0,0,-1.25,120.61017,477.22542)">
        <path d="m 0,0 c -0.825,-0.759 -1.752,-1.352 -2.783,-1.778 -1.03,-0.426 -2.122,-0.639 -3.274,-0.639 -1.284,0 -2.497,0.234 -3.64,0.702 -1.143,0.469 -2.145,1.118 -3.007,1.947 -0.862,0.829 -1.546,1.806 -2.052,2.93 -0.506,1.124 -0.759,2.347 -0.759,3.668 0,0.824 0.101,1.623 0.302,2.396 0.201,0.773 0.487,1.497 0.857,2.171 0.37,0.675 0.82,1.295 1.35,1.862 0.529,0.567 1.121,1.052 1.777,1.455 0.656,0.403 1.368,0.717 2.136,0.942 0.768,0.224 1.579,0.337 2.432,0.337 0.777,0 1.532,-0.103 2.262,-0.309 0.731,-0.207 1.417,-0.497 2.059,-0.872 0.642,-0.375 1.23,-0.824 1.764,-1.349 0.534,-0.525 0.993,-1.098 1.377,-1.721 C 1.185,11.118 1.483,10.453 1.693,9.746 1.904,9.039 2.01,8.31 2.01,7.561 2.01,7.073 2.003,6.675 1.989,6.366 1.974,6.057 1.902,5.811 1.771,5.628 1.639,5.446 1.421,5.319 1.117,5.249 0.813,5.179 0.365,5.144 -0.225,5.144 l -10.118,0 c 0.093,-0.6 0.283,-1.102 0.569,-1.504 0.285,-0.403 0.616,-0.724 0.991,-0.963 0.374,-0.239 0.772,-0.41 1.194,-0.513 0.422,-0.103 0.82,-0.154 1.195,-0.154 0.337,0 0.683,0.035 1.04,0.105 0.356,0.07 0.7,0.164 1.033,0.281 0.332,0.117 0.637,0.253 0.913,0.408 0.276,0.154 0.499,0.316 0.668,0.485 0.149,0.121 0.278,0.212 0.386,0.273 0.108,0.061 0.223,0.092 0.344,0.092 0.122,0 0.246,-0.042 0.373,-0.127 0.126,-0.084 0.269,-0.206 0.428,-0.365 L 0.281,1.476 C 0.384,1.354 0.45,1.244 0.478,1.145 0.506,1.047 0.52,0.946 0.52,0.843 0.52,0.656 0.468,0.494 0.365,0.358 0.262,0.222 0.141,0.103 0,0 m -6.76,11.706 c -0.365,0 -0.719,-0.072 -1.061,-0.217 -0.342,-0.146 -0.663,-0.34 -0.962,-0.584 -0.3,-0.243 -0.57,-0.52 -0.809,-0.829 -0.238,-0.309 -0.433,-0.623 -0.583,-0.941 l 7.182,0 c -0.197,0.365 -0.41,0.702 -0.64,1.011 -0.229,0.31 -0.492,0.581 -0.787,0.816 -0.295,0.234 -0.632,0.416 -1.012,0.548 -0.379,0.131 -0.822,0.196 -1.328,0.196" style="fill:#26588d;fill-opacity:1;fill-rule:nonzero;stroke:none" id="path144"/>
      </g>
      <g id="g146" transform="matrix(1.25,0,0,-1.25,141.9573,477.17279)">
        <path d="m 0,0 c -0.253,-0.253 -0.532,-0.525 -0.836,-0.815 -0.305,-0.29 -0.64,-0.562 -1.005,-0.815 -0.366,-0.253 -0.759,-0.462 -1.181,-0.626 -0.421,-0.163 -0.876,-0.245 -1.363,-0.245 -1.274,0 -2.448,0.238 -3.52,0.716 -1.073,0.478 -1.996,1.132 -2.769,1.961 -0.773,0.829 -1.377,1.806 -1.813,2.93 -0.435,1.124 -0.653,2.333 -0.653,3.626 0,1.302 0.218,2.513 0.653,3.632 0.436,1.12 1.04,2.094 1.813,2.924 0.773,0.829 1.696,1.48 2.769,1.953 1.072,0.473 2.246,0.71 3.52,0.71 0.515,0 0.986,-0.075 1.413,-0.225 0.426,-0.15 0.815,-0.342 1.166,-0.576 0.351,-0.235 0.675,-0.499 0.97,-0.794 0.295,-0.295 0.574,-0.583 0.836,-0.865 l 0,6.423 c 0,0.3 0.091,0.552 0.274,0.759 0.183,0.206 0.457,0.309 0.822,0.309 l 3.162,0 c 0.122,0 0.251,-0.026 0.387,-0.077 0.135,-0.052 0.26,-0.125 0.372,-0.218 0.112,-0.094 0.204,-0.207 0.274,-0.338 0.07,-0.131 0.105,-0.276 0.105,-0.435 l 0,-21.01 c 0,-0.722 -0.379,-1.082 -1.138,-1.082 l -2.754,0 c -0.188,0 -0.333,0.023 -0.436,0.07 -0.103,0.047 -0.19,0.115 -0.26,0.204 -0.07,0.089 -0.133,0.201 -0.19,0.337 -0.056,0.136 -0.126,0.293 -0.211,0.471 L 0,0 Z m -8.081,6.732 c 0,-0.619 0.096,-1.197 0.288,-1.736 0.192,-0.539 0.466,-1.005 0.822,-1.398 0.356,-0.394 0.785,-0.705 1.286,-0.935 0.501,-0.229 1.056,-0.344 1.666,-0.344 0.599,0 1.164,0.108 1.693,0.323 0.529,0.215 0.991,0.513 1.384,0.892 0.394,0.38 0.71,0.827 0.949,1.343 0.239,0.515 0.372,1.068 0.4,1.658 l 0,0.197 c 0,0.599 -0.112,1.171 -0.337,1.714 -0.225,0.544 -0.536,1.021 -0.934,1.434 -0.399,0.412 -0.867,0.737 -1.406,0.976 -0.539,0.239 -1.122,0.359 -1.749,0.359 -0.61,0 -1.165,-0.12 -1.666,-0.359 C -6.186,10.617 -6.615,10.292 -6.971,9.88 -7.327,9.467 -7.601,8.99 -7.793,8.446 -7.985,7.903 -8.081,7.331 -8.081,6.732" style="fill:#26588d;fill-opacity:1;fill-rule:nonzero;stroke:none" id="path148"/>
      </g>
      <g id="g150" transform="matrix(1.25,0,0,-1.25,174.95218,478.59567)">
        <path d="M 0,0 C 0,-0.159 -0.028,-0.312 -0.084,-0.457 -0.14,-0.602 -0.234,-0.717 -0.365,-0.801 -0.469,-0.904 -0.59,-0.97 -0.731,-0.998 -0.871,-1.026 -0.993,-1.04 -1.096,-1.04 l -2.768,0 c -0.197,0 -0.357,0.026 -0.478,0.077 -0.122,0.052 -0.221,0.124 -0.295,0.218 -0.076,0.094 -0.139,0.209 -0.19,0.344 -0.052,0.136 -0.106,0.284 -0.162,0.443 L -5.397,1.096 C -5.649,0.843 -5.926,0.574 -6.225,0.288 c -0.3,-0.286 -0.631,-0.55 -0.991,-0.794 -0.361,-0.244 -0.752,-0.447 -1.174,-0.611 -0.421,-0.164 -0.871,-0.246 -1.349,-0.246 -0.853,0 -1.67,0.108 -2.452,0.323 -0.783,0.215 -1.513,0.522 -2.193,0.921 -0.679,0.398 -1.295,0.875 -1.848,1.433 -0.552,0.557 -1.028,1.178 -1.426,1.862 -0.398,0.684 -0.705,1.422 -0.921,2.213 -0.215,0.792 -0.323,1.619 -0.323,2.481 0,1.302 0.239,2.513 0.717,3.633 0.478,1.119 1.129,2.094 1.953,2.923 0.825,0.829 1.794,1.48 2.91,1.953 1.114,0.473 2.309,0.71 3.583,0.71 0.581,0 1.115,-0.087 1.602,-0.26 0.487,-0.173 0.93,-0.401 1.328,-0.682 0.398,-0.281 0.759,-0.599 1.082,-0.955 0.323,-0.356 0.612,-0.717 0.865,-1.082 l 0.548,1.7 c 0.093,0.234 0.17,0.424 0.232,0.569 0.06,0.145 0.126,0.253 0.196,0.323 0.07,0.071 0.157,0.118 0.26,0.141 0.103,0.023 0.248,0.035 0.436,0.035 l 2.094,0 c 0.103,0 0.225,-0.014 0.365,-0.042 0.141,-0.028 0.262,-0.094 0.366,-0.197 0.131,-0.103 0.225,-0.22 0.281,-0.351 C -0.028,16.157 0,16.007 0,15.838 L 0,0 Z m -13.843,7.87 c 0,-0.619 0.096,-1.197 0.288,-1.736 0.192,-0.538 0.466,-1.005 0.823,-1.398 0.356,-0.394 0.784,-0.705 1.286,-0.935 0.501,-0.229 1.056,-0.344 1.665,-0.344 0.627,0 1.211,0.115 1.75,0.344 0.538,0.23 1.007,0.541 1.405,0.935 0.398,0.393 0.71,0.86 0.934,1.398 0.225,0.539 0.338,1.117 0.338,1.736 0,0.599 -0.113,1.171 -0.338,1.714 -0.224,0.544 -0.536,1.022 -0.934,1.434 -0.398,0.412 -0.867,0.738 -1.405,0.977 -0.539,0.238 -1.123,0.358 -1.75,0.358 -0.609,0 -1.164,-0.12 -1.665,-0.358 -0.502,-0.239 -0.93,-0.565 -1.286,-0.977 -0.357,-0.412 -0.631,-0.89 -0.823,-1.434 -0.192,-0.543 -0.288,-1.115 -0.288,-1.714" style="fill:#26588d;fill-opacity:1;fill-rule:nonzero;stroke:none" id="path152"/>
      </g>
      <g id="g154" transform="matrix(1.25,0,0,-1.25,178.21555,457.90017)">
        <path d="m 0,0 c 0.122,0.103 0.251,0.169 0.387,0.197 0.135,0.028 0.264,0.042 0.386,0.042 l 2.122,0 c 0.169,0 0.314,-0.031 0.436,-0.091 0.121,-0.061 0.225,-0.143 0.309,-0.246 0.084,-0.103 0.152,-0.22 0.204,-0.351 0.051,-0.13 0.1,-0.266 0.147,-0.406 l 0.436,-1.794 c 0.141,0.29 0.344,0.619 0.611,0.988 0.267,0.369 0.607,0.715 1.019,1.037 0.412,0.323 0.902,0.594 1.469,0.813 0.566,0.22 1.224,0.329 1.974,0.329 1.068,0 2.038,-0.205 2.909,-0.616 0.872,-0.411 1.614,-0.972 2.228,-1.682 0.613,-0.71 1.089,-1.54 1.426,-2.489 0.338,-0.95 0.506,-1.963 0.506,-3.04 l 0,-9.205 c 0,-0.356 -0.077,-0.626 -0.232,-0.808 -0.154,-0.183 -0.4,-0.274 -0.738,-0.274 l -3.246,0 c -0.403,0 -0.679,0.067 -0.829,0.203 -0.15,0.136 -0.225,0.401 -0.225,0.794 l 0,9.149 c 0,0.403 -0.091,0.785 -0.274,1.146 -0.183,0.36 -0.424,0.679 -0.724,0.955 -0.3,0.276 -0.639,0.494 -1.019,0.654 -0.379,0.159 -0.765,0.239 -1.159,0.239 -0.337,0 -0.681,-0.076 -1.033,-0.225 C 6.739,-4.831 6.415,-5.04 6.12,-5.307 5.825,-5.574 5.577,-5.888 5.376,-6.248 5.174,-6.609 5.059,-7 5.031,-7.422 l 0,-9.134 c 0,-0.16 -0.03,-0.319 -0.091,-0.478 -0.061,-0.16 -0.152,-0.281 -0.274,-0.366 -0.122,-0.075 -0.237,-0.126 -0.344,-0.154 -0.108,-0.028 -0.232,-0.042 -0.373,-0.042 l -3.176,0 c -0.403,0 -0.693,0.098 -0.871,0.295 -0.178,0.196 -0.267,0.459 -0.267,0.787 l 0,15.715 c 0,0.178 0.039,0.341 0.119,0.491 0.08,0.149 0.19,0.266 0.33,0.35 L 0,0 Z" style="fill:#26588d;fill-opacity:1;fill-rule:nonzero;stroke:none" id="path156"/>
      </g>
      <g id="g158" transform="matrix(1.25,0,0,-1.25,203.00617,454.10755)">
        <path d="M 0,0 C 0,0.29 0.096,0.508 0.288,0.654 0.48,0.799 0.754,0.937 1.11,1.068 l 3.191,1.11 c 0.046,0.009 0.091,0.014 0.133,0.014 l 0.119,0 C 4.9,2.192 5.132,2.092 5.249,1.89 5.366,1.689 5.425,1.424 5.425,1.096 l -0.014,-4.427 2.347,0 c 0.299,0 0.543,-0.089 0.73,-0.267 0.188,-0.178 0.281,-0.445 0.281,-0.801 l 0,-2.712 c 0,-0.394 -0.093,-0.682 -0.281,-0.864 -0.187,-0.183 -0.431,-0.274 -0.73,-0.274 l -2.347,0 0.014,-11.299 c 0,-0.356 -0.104,-0.626 -0.31,-0.808 -0.206,-0.183 -0.491,-0.274 -0.857,-0.274 l -3.176,0 C 0.361,-20.63 0,-20.27 0,-19.548 l -0.014,11.299 -1.026,0 c -0.722,0 -1.082,0.379 -1.082,1.138 l 0,2.712 c 0,0.712 0.36,1.068 1.082,1.068 l 1.026,0 L 0,0 Z" style="fill:#26588d;fill-opacity:1;fill-rule:nonzero;stroke:none" id="path160"/>
      </g>
      <g id="g162" transform="matrix(1.25,0,0,-1.25,238.41418,478.59567)">
        <path d="M 0,0 C 0,-0.159 -0.028,-0.312 -0.084,-0.457 -0.14,-0.602 -0.234,-0.717 -0.365,-0.801 -0.469,-0.904 -0.59,-0.97 -0.731,-0.998 -0.871,-1.026 -0.993,-1.04 -1.096,-1.04 l -2.769,0 c -0.196,0 -0.356,0.026 -0.477,0.077 -0.122,0.052 -0.221,0.124 -0.296,0.218 -0.075,0.094 -0.138,0.209 -0.189,0.344 -0.052,0.136 -0.106,0.284 -0.162,0.443 L -5.397,1.096 C -5.649,0.843 -5.926,0.574 -6.226,0.288 c -0.299,-0.286 -0.63,-0.55 -0.99,-0.794 -0.361,-0.244 -0.752,-0.447 -1.174,-0.611 -0.421,-0.164 -0.871,-0.246 -1.349,-0.246 -0.853,0 -1.67,0.108 -2.452,0.323 -0.783,0.215 -1.513,0.522 -2.193,0.921 -0.679,0.398 -1.295,0.875 -1.848,1.433 -0.552,0.557 -1.028,1.178 -1.426,1.862 -0.398,0.684 -0.705,1.422 -0.921,2.213 -0.215,0.792 -0.323,1.619 -0.323,2.481 0,1.302 0.239,2.513 0.717,3.633 0.478,1.119 1.129,2.094 1.953,2.923 0.825,0.829 1.794,1.48 2.91,1.953 1.114,0.473 2.309,0.71 3.583,0.71 0.581,0 1.115,-0.087 1.602,-0.26 0.487,-0.173 0.93,-0.401 1.328,-0.682 0.398,-0.281 0.759,-0.599 1.082,-0.955 0.323,-0.356 0.612,-0.717 0.865,-1.082 l 0.548,1.7 c 0.093,0.234 0.17,0.424 0.232,0.569 0.06,0.145 0.126,0.253 0.196,0.323 0.07,0.071 0.157,0.118 0.26,0.141 0.103,0.023 0.248,0.035 0.436,0.035 l 2.094,0 c 0.103,0 0.225,-0.014 0.365,-0.042 0.141,-0.028 0.262,-0.094 0.366,-0.197 0.131,-0.103 0.225,-0.22 0.281,-0.351 C -0.028,16.157 0,16.007 0,15.838 L 0,0 Z m -13.843,7.87 c 0,-0.619 0.096,-1.197 0.288,-1.736 0.192,-0.538 0.466,-1.005 0.823,-1.398 0.356,-0.394 0.784,-0.705 1.286,-0.935 0.501,-0.229 1.056,-0.344 1.665,-0.344 0.627,0 1.211,0.115 1.75,0.344 0.538,0.23 1.007,0.541 1.405,0.935 0.398,0.393 0.71,0.86 0.934,1.398 0.225,0.539 0.338,1.117 0.338,1.736 0,0.599 -0.113,1.171 -0.338,1.714 -0.224,0.544 -0.536,1.022 -0.934,1.434 -0.398,0.412 -0.867,0.738 -1.405,0.977 -0.539,0.238 -1.123,0.358 -1.75,0.358 -0.609,0 -1.164,-0.12 -1.665,-0.358 -0.502,-0.239 -0.93,-0.565 -1.286,-0.977 -0.357,-0.412 -0.631,-0.89 -0.823,-1.434 -0.192,-0.543 -0.288,-1.115 -0.288,-1.714" style="fill:#26588d;fill-opacity:1;fill-rule:nonzero;stroke:none" id="path164"/>
      </g>
      <g id="g166" transform="matrix(1.25,0,0,-1.25,43.963557,456.79367)">
        <path d="m 0,0 c -0.401,3.044 -3.472,5.874 -8.931,7.487 -0.472,0.14 -1.582,0.382 -2.521,-0.334 -0.46,-0.351 -1.081,-0.831 -1.515,-1.211 -1.03,-0.905 0.314,-1.269 1.047,-1.394 5.152,-0.879 10.406,-3.002 11.283,-6.979 0.368,-1.67 0.49,-9.718 20.543,-1.984 0.57,0.22 1.826,0.631 1.364,1.848 -0.155,0.407 -0.317,0.81 -0.497,1.204 -0.469,1.028 -1.505,0.703 -2.001,0.496 C 11.001,-4.115 0.855,-6.497 0,0" style="fill:#26588d;fill-opacity:1;fill-rule:nonzero;stroke:none" id="path168"/>
      </g>
      <g id="g170" transform="matrix(1.25,0,0,-1.25,43.963557,464.44342)">
        <path d="m 0,0 c -0.511,3.892 -5.391,7.437 -14.05,8.531 -0.632,0.08 -1.976,0.212 -2.655,-0.804 -0.256,-0.383 -0.51,-0.77 -0.72,-1.182 -0.606,-1.192 0.494,-1.504 1.179,-1.534 6.08,-0.271 14.478,-2.319 15.609,-7.442 0.374,-1.699 0.494,-9.985 21.55,-1.59 0.556,0.221 1.742,0.71 1.626,2.071 -0.042,0.497 -0.101,0.989 -0.19,1.473 C 22.194,0.358 20.96,0.092 20.337,-0.189 12.441,-3.747 0.914,-6.944 0,0" style="fill:#26588d;fill-opacity:1;fill-rule:nonzero;stroke:none" id="path172"/>
      </g>
      <g id="g174" transform="matrix(1.25,0,0,-1.25,43.963557,472.22742)">
        <path d="m 0,0 c -0.579,4.4 -6.735,8.354 -17.62,8.828 -0.498,0.022 -1.494,0.055 -1.821,-0.953 -0.18,-0.553 -0.298,-1.13 -0.392,-1.711 -0.203,-1.263 0.868,-1.148 1.471,-1.131 6.026,0.163 16.455,-1.711 17.725,-7.464 0.371,-1.683 0.49,-9.837 20.985,-1.815 0.478,0.187 1.472,0.527 1.738,1.756 0.151,0.698 0.303,1.487 0.351,1.802 0.196,1.297 -0.814,1.094 -1.328,0.854 C 13.216,-3.524 0.945,-7.175 0,0" style="fill:#26588d;fill-opacity:1;fill-rule:nonzero;stroke:none" id="path176"/>
      </g>
      <g id="g178" transform="matrix(1.25,0,0,-1.25,43.963557,480.01154)">
        <path d="m 0,0 c -0.587,4.456 -6.891,8.452 -18.033,8.843 -0.699,0.025 -2.197,0.21 -2.154,-0.846 0.028,-0.662 0.063,-1.318 0.133,-1.965 0.103,-0.948 1.439,-0.996 2.178,-0.989 6.083,0.052 16.003,-1.873 17.239,-7.474 0.344,-1.561 0.471,-8.692 16.85,-3.31 0.474,0.155 1.598,0.66 2.261,1.518 0.708,0.916 1.295,1.923 1.83,2.96 0.553,1.073 -0.345,0.904 -0.853,0.684 C 11.606,-3.968 0.88,-6.688 0,0" style="fill:#75c044;fill-opacity:1;fill-rule:nonzero;stroke:none" id="path180"/>
      </g>
      <g id="g182" transform="matrix(1.25,0,0,-1.25,43.166932,452.18105)">
        <path d="m 0,0 c 0.358,-1.622 0.483,-9.25 18.822,-2.628 0.348,0.125 0.905,0.693 0.449,1.295 -0.392,0.518 -0.782,1.036 -1.204,1.528 C 17.658,0.672 16.762,0.528 16.382,0.393 9.23,-2.144 1.385,-3.248 0.637,2.431 0.464,3.75 -0.213,5.027 -1.365,6.183 -1.704,6.523 -2.649,7.185 -3.682,6.89 -4.2,6.742 -4.713,6.587 -5.219,6.416 -6.127,6.109 -5.375,5.318 -4.754,5.019 -2.329,3.849 -0.488,2.212 0,0" style="fill:#75c044;fill-opacity:1;fill-rule:nonzero;stroke:none" id="path184"/>
      </g>
      <g id="g186" transform="matrix(1.25,0,0,-1.25,61.510807,447.98529)">
        <path d="m 0,0 c -0.691,0.517 -1.402,1.013 -2.165,1.425 -0.518,0.28 -1.624,0.26 -2.024,0.182 -4.216,-0.815 -7.895,-0.559 -9.299,1.964 -0.114,0.206 -0.284,0.673 -0.864,0.627 -0.304,-0.024 -0.737,-0.122 -0.556,-0.56 0.102,-0.246 0.174,-0.504 0.233,-0.769 0.326,-1.474 0.708,-8.741 14.299,-4.085 C 0.699,-0.848 0.347,-0.26 0,0" style="fill:#75c044;fill-opacity:1;fill-rule:nonzero;stroke:none" id="path188"/>
      </g>
      <g id="g190" transform="matrix(1.25,0,0,-1.25,46.935682,496.27629)">
        <path d="m 0,0 c 0,0 6.74,0.474 12.172,4.122 0,0 0.138,1.608 -4.486,0.466 C 3.062,3.446 0.111,0.306 0,0" style="fill:#75c044;fill-opacity:1;fill-rule:nonzero;stroke:none" id="path192"/>
      </g>
      <g id="g194" transform="matrix(1.25,0,0,-1.25,38.428557,491.46342)">
        <path d="m 0,0 c -4.346,4.652 -10.685,8.056 -9.053,7.967 0,0 9.94,-2.249 14.755,-11.782 0.055,0.002 0.085,0.003 0.085,0.003 0,0 0.007,3.823 -1.378,6.897 -3.516,7.8 -17.704,8.577 -17.704,8.577 -1.324,0.081 -1.039,-1.212 -1.039,-1.212 0,0 0.606,-5.109 7.1,-9.872 3.635,-2.665 7.28,-3.722 9.785,-4.136 C 2.224,-2.935 1.39,-1.488 0,0" style="fill:#75c044;fill-opacity:1;fill-rule:nonzero;stroke:none" id="path196"/>
      </g>
    </g>
  </g>
</svg>