<svg version="1.1" id="Layer_1" xmlns="http://www.w3.org/2000/svg" xmlns:xlink="http://www.w3.org/1999/xlink" x="0px" y="0px"
	 viewBox="0 0 439.6 108.2" style="enable-background:new 0 0 439.6 108.2;" xml:space="preserve" width="201px" height="50px">
<style type="text/css">
	.st0{fill:#E60000;}
</style>
<g id="XMLID_51_">
	<path id="XMLID_49_" class="st0" d="M30.7,5.3c14.4-7,31.8-7.1,46.3-0.4C65.8,4,54.6,7.7,45.2,13.8C35.5,20,28.4,30.1,25.5,41.2
		c-2.1,8-1.7,16.6,1.6,24.2c4.5,10.8,15.6,18.8,27.4,18.9c6.8,0.1,13.6-2.2,18.8-6.5c6.2-5.1,10.2-12.9,10.6-21
		c0.3-6.5-1.3-13.4-5.5-18.5c-4.6-5.7-11.5-8.9-18.5-10.6C59.2,17.2,67.3,7.2,77.5,5.2c11.7,5.5,21.2,15.3,26.4,27.1
		c5,11.3,6,24.4,2.6,36.4c-3,10.9-9.6,20.8-18.5,27.8c-9.4,7.5-21.4,11.8-33.5,11.8c-10.6,0.1-21.2-3-30.1-8.9
		C13.6,92.2,5.4,81.2,2,68.7C-1.2,57.4-0.5,45,3.8,34.1C8.8,21.6,18.6,11.1,30.7,5.3z"/>
	<path id="XMLID_48_" class="st0" d="M299.3,26.1c1.7-3,5-4.7,8.4-5.1c3.9-0.5,7.9,0,11.5,1.4c-0.3,2.8-0.8,5.6-1.1,8.5
		c-2.8-1.1-6.2-1.9-8.9-0.2c-2.1,1.4-1.9,4.1-1.8,6.3c2.8,0,5.6,0,8.5,0c0,2.8,0,5.5,0,8.3c-2.8,0-5.6,0-8.4,0c0,10.4,0,20.9,0,31.3
		c-3.4,0-6.8,0-10.1,0c0-10.4,0-20.9,0-31.3c-1.8,0-3.5,0-5.3,0c0-2.8,0-5.5,0-8.3c1.8,0,3.5,0,5.3,0
		C297.2,33.3,297.3,29.4,299.3,26.1z"/>
	<g id="XMLID_70_">
		<path id="XMLID_71_" class="st0" d="M237.8,21.8c3.4,0,6.8,0,10.2,0c0,18.2,0,36.5,0,54.7c-3.1,0-6.2,0-9.3,0
			c-0.2-1-0.3-2-0.4-3.1c-4.7,5.2-13.3,5-18.5,0.7c-5.2-4.1-7.3-11-7.3-17.5c-0.1-6.8,2.7-14.1,8.6-17.9c4.9-3.3,11.3-3.4,16.8-1.7
			C237.8,32,237.8,26.9,237.8,21.8z M227.4,45.8c-2.9,1.7-4.5,5-5,8.3c-0.3,3.2-0.1,6.5,1.2,9.5c1,2.2,2.8,4.2,5.2,4.9
			c3.2,0.9,6.9-0.4,8.9-3.1c-0.1-6.6,0-13.1,0-19.7C234.5,44.5,230.6,44,227.4,45.8z"/>
	</g>
	<g id="XMLID_66_">
		<path id="XMLID_67_" class="st0" d="M183.1,36.6c5-1.1,10.7-0.8,15.1,2.1c4.6,2.8,7.6,7.8,8.6,13.1c1.1,5.9,0.2,12.2-3,17.3
			c-2.5,4-6.5,6.9-11.1,7.9c-4.6,0.9-9.6,0.5-13.7-1.9c-3.9-2.2-6.7-6-8.2-10.2c-2.2-6.2-1.8-13.2,1.2-19.1
			C174.1,41.3,178.3,37.9,183.1,36.6z M185.7,45c-3,1-5,3.8-5.8,6.7c-1,3.7-0.9,7.8,0.5,11.4c0.9,2.4,2.9,4.6,5.5,5.3
			c2.8,0.8,6.1,0,8.1-2.2c2.6-2.9,3.3-7,3.1-10.7c-0.2-3.3-1.2-6.8-3.8-9.1C191.3,44.6,188.3,44.2,185.7,45z"/>
	</g>
	<g id="XMLID_62_">
		<path id="XMLID_63_" class="st0" d="M257,40.8c5.5-4,12.6-5.6,19.3-4.3c3.4,0.6,6.6,2.7,8.3,5.7c2,3.3,2.2,7.3,2.1,11
			c0,7.8,0,15.6,0,23.4c-3.1,0-6.2,0-9.3,0c-0.1-1-0.2-2-0.4-2.9c-5.1,5.2-14.6,5-19.6-0.2c-2.9-3.1-4-7.7-2.9-11.7
			c0.9-3.5,3.7-6.2,6.9-7.7c4.7-2.2,10-2.7,15.1-3.1c0.1-2.2-0.4-5-2.7-5.9c-4.6-2-9.7,0.2-13.5,3C259.2,45.6,258.1,43.2,257,40.8z
			 M266.6,60c-2,1.2-3,3.8-2.3,6.1c0.6,1.8,2.6,2.7,4.4,2.8c2.9,0.3,5.7-0.9,7.9-2.8c0-2.7,0-5.4,0-8.1
			C273.2,58.4,269.7,58.4,266.6,60z"/>
	</g>
	<g id="XMLID_58_">
		<path id="XMLID_59_" class="st0" d="M332,36.6c4.9-1,10.4-0.7,14.8,2.1c4.7,2.8,7.7,7.9,8.7,13.2c1.2,5.6,0.2,11.5-2.6,16.5
			c-2.3,4.2-6.4,7.4-11.1,8.5c-5,1.1-10.6,0.6-14.9-2.3c-4.4-2.8-7.2-7.5-8.3-12.5c-1.5-6-0.5-12.7,2.9-18
			C323.8,40.4,327.7,37.6,332,36.6z M334.6,44.9c-2.6,0.8-4.7,3-5.6,5.6c-1.4,3.8-1.4,8.1-0.1,11.9c0.6,1.8,1.6,3.6,3.2,4.7
			c3,2.3,7.6,2.1,10.3-0.6c2.7-2.6,3.5-6.5,3.5-10.1c-0.1-3.7-1-7.7-4-10.1C339.9,44.6,337.1,44.3,334.6,44.9z"/>
	</g>
	<path id="XMLID_36_" class="st0" d="M372,40.1c4.1-3.3,9.7-4.8,14.9-3.7c3.4,0.5,6.5,2.6,8.2,5.5c2.2,3.8,2.6,8.3,2.5,12.6
		c0,7.3,0,14.7,0,22c-3.4,0-6.8,0-10.2,0c0-7.3,0-14.7,0-22c0-2.7-0.3-5.7-2.1-7.8c-1.2-1.5-3.2-2.2-5.1-2.1
		c-3.1-0.1-5.6,1.9-7.8,3.9c0,9.4,0,18.7,0,28.1c-3.4,0-6.8,0-10.2,0c0-13.2,0-26.4,0-39.5c3.1,0,6.2,0,9.3,0
		C371.7,38,371.9,39.1,372,40.1z"/>
	<g id="XMLID_53_">
		<path id="XMLID_54_" class="st0" d="M409,41.6c6.3-6.9,18.4-7.5,25.1-0.9c4.7,4.9,5.7,12.2,5.5,18.7c-8.5,0-17.1,0-25.6,0
			c0,3.5,1.8,7.1,5.1,8.4c5.3,2.1,11.6,0.8,16.2-2.5c0.8,2.8,1.9,5.5,2.6,8.3c-4.2,2.7-9.3,3.7-14.2,3.9c-5.2,0.1-10.8-1.4-14.5-5.3
			c-4.4-4.5-5.9-11.1-5.5-17.2C404,50.1,405.7,45.2,409,41.6z M417.1,46.1c-1.8,1.4-2.7,3.7-3,6c5.1,0,10.1,0,15.2,0
			c-0.3-2.9-1.6-5.9-4.4-7.2C422.4,43.5,419.2,44.3,417.1,46.1z"/>
	</g>
	<path id="XMLID_32_" class="st0" d="M126.8,37c3.6,0,7.3,0,10.9,0c3.2,8.1,6.4,16.2,9.6,24.3c0.2,0.6,0.5,1.2,0.8,1.7
		c3.3-8.7,6.6-17.4,9.9-26c3.5,0,6.9,0,10.4,0c-5.4,13.2-10.7,26.3-16.1,39.5c-3,0.1-5.9,0-8.9,0C137.9,63.4,132.4,50.2,126.8,37z"
		/>
</g>
</svg>
