<svg 
 xmlns="http://www.w3.org/2000/svg"
 xmlns:xlink="http://www.w3.org/1999/xlink"
 width="83px" height="83px">
<path fill-rule="evenodd"  fill="rgb(0, 158, 236)"
 d="M80.440,34.253 C78.944,37.186 76.812,39.811 74.246,41.889 L74.246,51.268 C74.246,51.923 73.851,52.515 73.246,52.766 C73.045,52.849 72.834,52.889 72.625,52.889 C72.203,52.889 71.789,52.724 71.479,52.415 L65.418,46.357 C63.473,46.866 61.466,47.124 59.438,47.124 L55.335,47.124 C42.343,47.124 31.773,36.554 31.773,23.562 C31.773,10.570 42.343,0.000 55.335,0.000 L59.438,0.000 C72.430,0.000 83.000,10.570 83.000,23.562 C83.000,27.326 82.139,30.922 80.440,34.253 ZM59.438,3.242 L55.335,3.242 C44.131,3.242 35.016,12.358 35.016,23.562 C35.016,34.766 44.131,43.882 55.335,43.882 L59.438,43.882 C61.474,43.882 63.485,43.581 65.415,42.988 C65.571,42.940 65.732,42.917 65.891,42.917 C66.314,42.917 66.728,43.083 67.037,43.391 L71.004,47.356 L71.004,41.099 C71.004,40.589 71.243,40.110 71.650,39.804 C76.803,35.923 79.758,30.003 79.758,23.562 C79.758,12.358 70.643,3.242 59.438,3.242 ZM59.462,24.892 L59.462,28.657 C59.462,29.552 58.736,30.278 57.841,30.278 C56.945,30.278 56.220,29.552 56.220,28.657 L56.220,24.762 C56.220,23.310 57.213,22.074 58.636,21.755 C60.393,21.362 61.577,19.767 61.453,17.961 C61.329,16.174 59.888,14.733 58.101,14.610 C57.081,14.539 56.112,14.882 55.370,15.574 C54.628,16.266 54.219,17.207 54.219,18.221 C54.219,19.117 53.494,19.843 52.598,19.843 C51.703,19.843 50.977,19.117 50.977,18.221 C50.977,16.326 51.772,14.497 53.158,13.203 C54.563,11.892 56.399,11.243 58.323,11.375 C61.717,11.609 64.453,14.344 64.687,17.738 C64.920,21.114 62.728,24.102 59.462,24.892 ZM57.841,33.448 C58.267,33.448 58.685,33.622 58.987,33.923 C59.288,34.224 59.462,34.643 59.462,35.069 C59.462,35.497 59.288,35.914 58.987,36.217 C58.685,36.518 58.267,36.690 57.841,36.690 C57.414,36.690 56.996,36.518 56.695,36.217 C56.393,35.915 56.220,35.497 56.220,35.069 C56.220,34.643 56.393,34.224 56.695,33.923 C56.996,33.622 57.414,33.448 57.841,33.448 ZM45.726,62.099 C45.425,62.401 45.006,62.574 44.580,62.574 C44.154,62.574 43.735,62.401 43.434,62.099 C43.132,61.798 42.959,61.379 42.959,60.953 C42.959,60.527 43.132,60.108 43.434,59.807 C43.735,59.506 44.154,59.332 44.580,59.332 C45.006,59.332 45.425,59.506 45.726,59.807 C46.028,60.108 46.201,60.527 46.201,60.953 C46.201,61.381 46.028,61.798 45.726,62.099 ZM10.375,59.332 L38.204,59.332 C39.099,59.332 39.825,60.058 39.825,60.953 C39.825,61.849 39.099,62.574 38.204,62.574 L10.375,62.574 C9.480,62.574 8.754,61.849 8.754,60.953 C8.754,60.058 9.480,59.332 10.375,59.332 ZM10.375,44.418 C9.480,44.418 8.754,43.692 8.754,42.797 C8.754,41.902 9.480,41.176 10.375,41.176 L34.043,41.176 C34.938,41.176 35.664,41.902 35.664,42.797 C35.664,43.692 34.938,44.418 34.043,44.418 L10.375,44.418 ZM46.201,51.875 C46.201,52.770 45.475,53.496 44.580,53.496 L10.375,53.496 C9.480,53.496 8.754,52.770 8.754,51.875 C8.754,50.980 9.480,50.254 10.375,50.254 L44.580,50.254 C45.475,50.254 46.201,50.980 46.201,51.875 ZM27.721,31.449 L11.348,31.449 C6.878,31.449 3.242,35.085 3.242,39.555 L3.242,64.520 C3.242,68.989 6.878,72.625 11.348,72.625 L21.881,72.625 C22.544,72.625 23.118,73.024 23.368,73.599 L27.237,77.468 L27.240,74.245 C27.240,73.350 27.966,72.625 28.861,72.625 L46.363,72.625 C50.833,72.625 54.469,68.989 54.469,64.520 L54.469,53.334 C54.469,52.439 55.195,51.713 56.090,51.713 C56.985,51.713 57.711,52.439 57.711,53.334 L57.711,64.520 C57.711,70.777 52.620,75.867 46.363,75.867 L30.480,75.867 L30.477,81.380 C30.476,82.036 30.081,82.626 29.475,82.877 C29.275,82.960 29.064,83.000 28.856,83.000 C28.434,83.000 28.019,82.835 27.709,82.525 L21.051,75.867 L11.348,75.867 C5.091,75.867 0.000,70.777 0.000,64.520 L0.000,39.555 C0.000,33.298 5.091,28.207 11.348,28.207 L27.721,28.207 C28.616,28.207 29.342,28.933 29.342,29.828 C29.342,30.723 28.616,31.449 27.721,31.449 Z"/>
</svg>