<svg 
 xmlns="http://www.w3.org/2000/svg"
 xmlns:xlink="http://www.w3.org/1999/xlink"
 width="90px" height="86px">
<path fill-rule="evenodd"  fill="rgb(14, 163, 237)"
 d="M71.061,61.305 L69.750,61.305 L69.750,64.566 C69.764,65.260 69.245,65.849 68.559,65.920 L64.495,66.323 C64.023,68.046 63.328,69.700 62.428,71.241 L65.066,74.443 C65.513,74.984 65.476,75.777 64.981,76.274 L60.122,81.150 C59.628,81.646 58.840,81.681 58.303,81.233 L55.125,78.581 C53.591,79.490 51.941,80.185 50.220,80.647 L49.819,84.795 C49.750,85.488 49.165,86.012 48.472,86.002 L41.588,86.002 C40.896,86.012 40.310,85.488 40.242,84.794 L39.841,80.657 C38.125,80.184 36.478,79.485 34.944,78.579 L31.759,81.235 C31.221,81.683 30.434,81.646 29.939,81.151 L25.082,76.274 C24.588,75.777 24.551,74.983 24.998,74.442 L27.635,71.248 C26.730,69.708 26.038,68.051 25.577,66.324 L21.443,65.919 C20.756,65.849 20.237,65.260 20.251,64.565 L20.251,61.304 L18.938,61.304 C8.495,61.304 -0.000,52.731 -0.000,42.228 C-0.000,42.205 0.001,42.155 0.001,42.133 L0.001,42.060 L0.001,42.013 C-0.012,30.392 8.393,20.493 19.807,18.687 C21.484,13.472 24.693,8.891 29.011,5.546 C33.665,1.933 39.384,-0.018 45.263,-0.000 C59.595,-0.000 71.328,11.402 71.961,25.658 C72.496,25.623 73.021,25.615 73.528,25.615 C77.887,25.601 82.071,27.344 85.144,30.454 C88.154,33.484 89.878,37.571 89.951,41.853 C89.983,41.976 90.000,42.102 89.999,42.229 C89.999,52.732 81.504,61.305 71.061,61.305 ZM22.958,63.329 L26.810,63.708 C27.388,63.767 27.860,64.200 27.971,64.773 C28.419,66.855 29.250,68.833 30.423,70.606 C30.753,71.106 30.719,71.766 30.338,72.228 L27.866,75.225 L30.980,78.349 L33.961,75.859 C34.415,75.480 35.060,75.439 35.557,75.759 C37.333,76.927 39.305,77.760 41.377,78.220 C41.953,78.338 42.384,78.820 42.443,79.408 L42.817,83.280 L47.243,83.280 L47.617,79.408 C47.675,78.823 48.107,78.345 48.680,78.231 C50.752,77.785 52.723,76.952 54.489,75.775 C54.986,75.444 55.640,75.480 56.099,75.862 L59.081,78.350 L62.193,75.225 L59.720,72.227 C59.341,71.770 59.301,71.116 59.624,70.616 C60.784,68.830 61.615,66.848 62.076,64.767 C62.196,64.194 62.670,63.765 63.249,63.707 L67.043,63.331 L67.043,58.889 L63.192,58.511 C62.613,58.452 62.141,58.020 62.030,57.446 C61.583,55.365 60.752,53.386 59.579,51.613 C59.248,51.113 59.283,50.454 59.665,49.991 L62.141,46.988 L59.076,43.875 L56.101,46.359 C55.647,46.739 55.001,46.779 54.504,46.459 C52.728,45.292 50.756,44.458 48.684,44.000 C48.108,43.882 47.676,43.400 47.619,42.812 L47.243,38.941 L42.818,38.941 L42.443,42.811 C42.384,43.396 41.953,43.873 41.380,43.987 C39.308,44.433 37.338,45.266 35.572,46.443 C35.074,46.774 34.420,46.738 33.961,46.355 L30.980,43.869 L27.868,46.994 L30.340,49.990 C30.720,50.448 30.759,51.102 30.436,51.602 C29.276,53.388 28.446,55.370 27.985,57.452 C27.865,58.025 27.389,58.453 26.810,58.511 L22.958,58.889 L22.958,63.329 ZM87.248,42.202 C87.258,38.066 85.434,34.141 82.271,31.497 C79.109,28.853 74.939,27.766 70.898,28.531 C70.495,28.612 70.077,28.504 69.762,28.238 C69.448,27.972 69.270,27.577 69.280,27.164 C69.282,27.066 69.282,26.971 69.282,26.874 C69.282,13.558 58.508,2.727 45.264,2.727 C34.530,2.761 25.111,9.923 22.152,20.299 C22.003,20.831 21.552,21.221 21.007,21.289 C10.539,22.512 2.659,31.453 2.708,42.052 L2.708,42.076 C2.709,42.113 2.711,42.164 2.711,42.202 C2.711,42.233 2.710,42.278 2.708,42.308 C2.751,51.273 10.016,58.582 18.940,58.582 L20.251,58.582 L20.251,57.653 C20.237,56.958 20.755,56.368 21.443,56.298 L25.565,55.894 C26.037,54.171 26.732,52.517 27.632,50.976 L24.993,47.775 C24.548,47.234 24.585,46.440 25.079,45.944 L29.938,41.067 C30.433,40.572 31.220,40.537 31.757,40.985 L34.936,43.638 C36.469,42.728 38.119,42.033 39.840,41.572 L40.241,37.423 C40.310,36.731 40.896,36.206 41.588,36.218 L48.471,36.218 C49.164,36.206 49.749,36.731 49.819,37.423 L50.221,41.560 C51.937,42.034 53.583,42.733 55.117,43.639 L58.302,40.982 C58.842,40.532 59.634,40.571 60.128,41.073 L64.926,45.949 C65.415,46.447 65.448,47.237 65.003,47.775 L62.366,50.970 C63.271,52.510 63.964,54.166 64.424,55.894 L68.557,56.298 C69.245,56.368 69.764,56.958 69.750,57.653 L69.750,58.582 L71.061,58.582 C79.901,58.582 87.111,51.411 87.289,42.565 C87.262,42.445 87.248,42.324 87.248,42.202 ZM45.005,47.380 C52.546,47.383 58.662,53.525 58.675,61.110 C58.675,68.690 52.568,74.836 45.031,74.839 C37.495,74.843 31.381,68.703 31.374,61.123 C31.367,53.542 37.469,47.391 45.005,47.380 ZM45.005,72.117 C51.052,72.116 55.957,67.192 55.968,61.110 C55.968,55.034 51.072,50.107 45.031,50.103 C38.989,50.099 34.088,55.021 34.081,61.097 C34.074,67.174 38.964,72.106 45.005,72.117 Z"/>
</svg>