<svg 
 xmlns="http://www.w3.org/2000/svg"
 xmlns:xlink="http://www.w3.org/1999/xlink"
 width="62px" height="84px">
<path fill-rule="evenodd"  fill="rgb(0, 158, 236)"
 d="M60.146,36.686 L59.981,36.670 L58.422,36.364 L59.549,37.491 C60.077,38.019 60.092,39.429 60.092,39.443 C60.092,40.017 59.731,40.246 59.576,40.318 L59.146,40.516 L56.452,43.213 C55.749,43.915 54.530,43.913 53.830,43.213 L52.387,41.769 L52.388,43.614 C52.395,43.680 52.398,43.746 52.398,43.813 C52.398,44.835 51.567,45.667 50.545,45.667 L46.153,45.666 C45.131,45.666 44.300,44.835 44.300,43.813 L44.300,41.770 L42.858,43.214 C42.186,43.888 40.912,43.890 40.236,43.214 L37.139,40.113 C36.417,39.391 36.417,38.215 37.139,37.493 L38.584,36.046 L36.541,36.046 C36.053,36.046 35.575,35.848 35.230,35.503 C34.880,35.154 34.687,34.688 34.687,34.193 L34.687,29.808 C34.687,28.786 35.519,27.955 36.541,27.955 L38.583,27.955 L37.138,26.509 C36.793,26.164 36.595,25.687 36.595,25.199 C36.595,24.711 36.793,24.234 37.137,23.889 L40.235,20.788 C40.937,20.086 42.155,20.086 42.856,20.787 L44.300,22.231 L44.300,20.187 C44.300,19.164 45.131,18.333 46.153,18.333 L50.534,18.333 C51.555,18.333 52.387,19.164 52.387,20.187 L52.387,22.231 L53.830,20.787 C54.504,20.111 55.777,20.112 56.451,20.787 L59.549,23.887 C60.270,24.609 60.270,25.785 59.549,26.507 L57.916,28.141 L60.243,28.597 C60.697,28.621 61.135,28.815 61.457,29.139 C61.806,29.487 61.999,29.952 62.000,30.447 L62.000,34.832 C62.000,35.854 61.168,36.686 60.146,36.686 ZM60.279,30.448 C60.279,30.411 60.266,30.380 60.240,30.353 C60.215,30.329 60.179,30.313 60.146,30.313 L59.981,30.297 L56.262,29.570 L55.618,28.008 L58.331,25.292 C58.383,25.241 58.383,25.153 58.331,25.102 L55.234,22.001 C55.217,21.986 55.063,21.985 55.047,22.001 L52.332,24.719 L50.666,24.030 L50.666,20.187 C50.666,20.114 50.605,20.053 50.534,20.053 L46.153,20.053 C46.082,20.053 46.021,20.114 46.021,20.187 L46.021,24.030 L44.355,24.719 L41.640,22.003 C41.587,21.950 41.506,21.951 41.453,22.003 L38.355,25.103 C38.332,25.127 38.316,25.164 38.316,25.199 C38.316,25.233 38.331,25.270 38.354,25.293 L41.069,28.009 L40.379,29.674 L36.541,29.675 C36.468,29.675 36.408,29.735 36.408,29.808 L36.408,34.193 C36.408,34.231 36.421,34.261 36.447,34.288 C36.471,34.312 36.508,34.327 36.541,34.327 L40.381,34.326 L41.069,35.992 L38.356,38.708 C38.305,38.760 38.305,38.847 38.356,38.899 L41.453,41.999 C41.463,42.008 41.622,42.017 41.640,42.000 L44.355,39.281 L46.020,39.972 L46.021,43.813 C46.021,43.886 46.082,43.947 46.153,43.947 L50.534,43.947 C50.617,43.947 50.677,43.886 50.677,43.813 L50.667,43.659 L50.666,39.970 L52.333,39.281 L55.048,41.998 C55.100,42.050 55.182,42.050 55.235,41.998 L58.313,38.916 C58.294,38.802 58.272,38.696 58.250,38.625 L55.617,35.992 L56.356,34.206 L60.190,34.959 C60.241,34.940 60.279,34.889 60.279,34.832 L60.279,30.448 ZM48.344,36.925 C45.630,36.925 43.422,34.716 43.422,32.000 C43.422,29.285 45.630,27.075 48.344,27.075 C51.057,27.075 53.265,29.285 53.265,32.000 C53.265,34.716 51.057,36.925 48.344,36.925 ZM48.344,28.795 C46.578,28.795 45.142,30.233 45.142,32.000 C45.142,33.768 46.578,35.206 48.344,35.206 C50.109,35.206 51.545,33.768 51.545,32.000 C51.545,30.233 50.109,28.795 48.344,28.795 ZM33.536,46.056 C33.805,46.325 33.954,46.684 33.954,47.066 L33.954,50.294 C33.954,51.082 33.313,51.723 32.525,51.723 L32.390,51.710 L31.457,51.527 L32.134,52.204 C32.547,52.619 32.551,53.676 32.551,53.687 C32.551,54.147 32.259,54.332 32.133,54.391 L31.829,54.531 L29.856,56.508 C29.315,57.049 28.375,57.049 27.835,56.507 L26.888,55.559 L26.888,56.752 C26.893,56.786 26.896,56.845 26.896,56.903 C26.896,57.692 26.255,58.333 25.467,58.333 L22.239,58.333 C21.451,58.333 20.810,57.691 20.810,56.903 L20.810,55.560 L19.864,56.508 C19.347,57.029 18.361,57.031 17.841,56.508 L15.565,54.226 C15.009,53.670 15.009,52.763 15.565,52.206 L16.516,51.252 L15.173,51.253 C14.797,51.253 14.429,51.100 14.163,50.834 C13.892,50.563 13.744,50.204 13.744,49.823 L13.744,46.596 C13.744,45.807 14.385,45.166 15.173,45.166 L16.516,45.166 L15.565,44.214 C15.299,43.947 15.146,43.579 15.146,43.203 C15.146,42.826 15.299,42.458 15.565,42.192 L17.842,39.910 C18.383,39.369 19.322,39.369 19.862,39.909 L20.810,40.859 L20.810,39.514 C20.810,38.725 21.451,38.084 22.239,38.084 L25.459,38.084 C26.247,38.084 26.887,38.725 26.887,39.514 L26.887,40.858 L27.835,39.909 C28.355,39.388 29.336,39.388 29.856,39.909 L32.133,42.191 C32.689,42.748 32.689,43.654 32.134,44.212 L31.020,45.328 L32.604,45.639 C32.953,45.659 33.289,45.808 33.536,46.056 ZM32.556,47.066 L32.488,47.066 L32.391,47.020 L29.622,46.478 L29.118,45.255 L31.144,43.226 C31.156,43.213 31.156,43.190 31.144,43.177 L28.867,40.896 L28.817,40.902 L26.797,42.928 L25.490,42.386 L25.490,39.514 L22.239,39.481 L22.208,42.385 L20.901,42.928 L18.874,40.897 L16.554,43.179 L16.059,43.720 L16.554,43.227 L18.580,45.256 L18.039,46.563 L15.173,46.563 L15.142,49.823 L18.040,49.855 L18.580,51.162 L16.555,53.192 C16.542,53.205 16.542,53.227 16.554,53.239 L18.832,55.522 L18.881,55.517 L20.901,53.489 L22.208,54.033 L22.208,56.903 L25.460,56.936 L25.498,56.903 L25.491,56.790 L25.490,54.031 L26.797,53.490 L28.824,55.521 L31.106,53.277 C31.096,53.216 31.084,53.161 31.072,53.119 L29.118,51.162 L29.698,49.758 L32.546,50.317 C32.552,50.311 32.556,50.303 32.556,50.294 L32.556,47.066 ZM23.849,51.899 C21.817,51.899 20.165,50.244 20.165,48.209 C20.165,46.174 21.817,44.519 23.849,44.519 C25.881,44.519 27.533,46.174 27.533,48.209 C27.533,50.244 25.881,51.899 23.849,51.899 ZM23.849,45.916 C22.588,45.916 21.562,46.944 21.562,48.209 C21.562,49.474 22.588,50.503 23.849,50.503 C25.110,50.503 26.136,49.474 26.136,48.209 C26.136,46.944 25.110,45.916 23.849,45.916 ZM49.296,14.000 L7.043,14.000 L3.659,14.000 L2.817,14.000 L2.817,68.600 L43.662,68.600 L47.046,68.600 L47.887,68.600 L47.887,51.800 C47.887,51.027 48.518,50.400 49.296,50.400 C50.074,50.400 50.704,51.027 50.704,51.800 L50.704,79.800 C50.704,82.120 48.812,84.000 46.479,84.000 L4.226,84.000 C1.892,84.000 0.000,82.119 0.000,79.800 L0.000,4.200 C0.000,1.880 1.892,0.000 4.226,0.000 L46.479,0.000 C48.812,0.000 50.704,1.880 50.704,4.200 L50.704,12.600 C50.704,13.373 50.074,14.000 49.296,14.000 ZM2.818,79.800 C2.818,80.573 3.448,81.200 4.226,81.200 L46.479,81.200 C47.257,81.200 47.887,80.573 47.887,79.800 L47.887,71.400 L47.046,71.400 L43.662,71.400 L2.818,71.400 L2.818,79.800 ZM47.887,4.200 C47.887,3.427 47.257,2.800 46.479,2.800 L4.226,2.800 C3.448,2.800 2.817,3.427 2.817,4.200 L2.817,11.200 L3.659,11.200 L7.043,11.200 L47.887,11.200 L47.887,4.200 ZM26.761,78.400 L23.944,78.400 C23.166,78.400 22.535,77.773 22.535,77.000 C22.535,76.227 23.166,75.600 23.944,75.600 L26.761,75.600 C27.539,75.600 28.169,76.227 28.169,77.000 C28.169,77.773 27.539,78.400 26.761,78.400 Z"/>
</svg>