<svg 
 xmlns="http://www.w3.org/2000/svg"
 xmlns:xlink="http://www.w3.org/1999/xlink"
 width="79px" height="79px">
<path fill-rule="evenodd"  fill="rgb(0, 158, 236)"
 d="M78.485,8.116 L40.691,46.178 C40.016,46.857 38.912,46.857 38.238,46.178 L24.195,32.036 C23.520,31.357 23.521,30.245 24.195,29.566 C24.870,28.887 25.973,28.887 26.648,29.566 L39.464,42.473 L76.033,5.646 C76.707,4.966 77.811,4.966 78.485,5.646 C79.160,6.325 79.160,7.436 78.485,8.116 ZM40.723,7.794 C40.723,8.759 39.946,9.541 38.988,9.541 C38.031,9.541 37.254,8.759 37.254,7.794 C37.254,6.829 38.031,6.047 38.988,6.047 C39.946,6.047 40.723,6.829 40.723,7.794 ZM5.574,39.698 C5.574,38.733 6.351,37.951 7.308,37.951 C8.266,37.951 9.043,38.733 9.043,39.698 C9.043,40.662 8.266,41.444 7.308,41.444 C6.351,41.444 5.574,40.662 5.574,39.698 ZM15.361,18.373 C14.684,17.691 14.684,16.585 15.361,15.903 C16.038,15.221 17.136,15.221 17.814,15.903 C18.491,16.585 18.491,17.691 17.814,18.373 C17.136,19.055 16.038,19.055 15.361,18.373 ZM17.814,63.492 C17.136,64.174 16.038,64.174 15.361,63.492 C14.684,62.810 14.684,61.704 15.361,61.022 C16.038,60.340 17.136,60.340 17.814,61.022 C18.491,61.704 18.491,62.810 17.814,63.492 ZM37.254,71.602 C37.254,70.637 38.031,69.855 38.988,69.855 C39.946,69.855 40.723,70.637 40.723,71.602 C40.723,72.566 39.946,73.348 38.988,73.348 C38.031,73.348 37.254,72.566 37.254,71.602 ZM60.163,63.492 C59.486,62.810 59.486,61.704 60.163,61.022 C60.840,60.340 61.939,60.340 62.616,61.022 C63.293,61.704 63.293,62.810 62.616,63.492 C61.939,64.174 60.840,64.174 60.163,63.492 ZM72.403,39.698 C72.403,40.662 71.626,41.444 70.668,41.444 C69.711,41.444 68.934,40.662 68.934,39.698 C68.934,38.733 69.711,37.951 70.668,37.951 C71.626,37.951 72.403,38.733 72.403,39.698 ZM39.223,3.039 C19.259,3.039 3.017,19.395 3.017,39.500 C3.017,59.605 19.259,75.962 39.223,75.962 C59.187,75.962 75.429,59.605 75.429,39.500 C75.429,32.338 73.359,25.657 69.803,20.016 L71.873,17.607 C76.024,23.874 78.446,31.402 78.446,39.500 C78.446,61.315 60.885,79.000 39.223,79.000 C17.561,79.000 0.000,61.315 0.000,39.500 C0.000,17.685 17.561,0.000 39.223,0.000 C50.044,0.000 59.842,4.414 66.938,11.550 L64.793,13.711 C58.238,7.120 49.195,3.039 39.223,3.039 Z"/>
</svg>