<svg 
 xmlns="http://www.w3.org/2000/svg"
 xmlns:xlink="http://www.w3.org/1999/xlink"
 width="83px" height="84px">
<path fill-rule="evenodd"  fill="rgb(14, 163, 237)"
 d="M80.785,44.067 L80.587,44.048 L78.723,43.684 L80.071,45.026 C80.702,45.656 80.719,47.335 80.719,47.352 C80.719,48.036 80.288,48.309 80.102,48.394 L79.589,48.631 L76.368,51.844 C75.528,52.681 74.070,52.678 73.234,51.844 L71.508,50.123 L71.509,52.321 C71.517,52.400 71.522,52.479 71.522,52.559 C71.522,53.777 70.528,54.767 69.306,54.767 L64.056,54.767 C62.834,54.767 61.840,53.776 61.840,52.559 L61.840,50.124 L60.116,51.845 C59.312,52.649 57.790,52.651 56.982,51.846 L53.279,48.151 C52.416,47.291 52.416,45.889 53.279,45.029 L55.007,43.304 L52.564,43.305 C51.980,43.305 51.409,43.069 50.997,42.658 C50.579,42.241 50.348,41.687 50.348,41.097 L50.348,35.872 C50.348,34.655 51.342,33.665 52.564,33.665 L55.006,33.664 L53.278,31.941 C52.866,31.531 52.629,30.962 52.629,30.380 C52.629,29.799 52.865,29.230 53.277,28.820 L56.981,25.125 C57.820,24.289 59.276,24.289 60.114,25.124 L61.840,26.845 L61.840,24.409 C61.840,23.191 62.834,22.200 64.056,22.200 L69.293,22.200 C70.514,22.200 71.508,23.191 71.508,24.409 L71.508,26.845 L73.233,25.124 C74.039,24.319 75.562,24.319 76.367,25.124 L80.071,28.818 C80.933,29.678 80.933,31.078 80.071,31.939 L78.118,33.886 L80.900,34.429 C81.443,34.458 81.967,34.689 82.352,35.075 C82.769,35.489 83.000,36.044 83.000,36.633 L83.000,41.859 C83.000,43.076 82.006,44.067 80.785,44.067 ZM80.943,36.635 C80.943,36.591 80.928,36.553 80.897,36.522 C80.867,36.492 80.824,36.475 80.785,36.475 L80.587,36.455 L76.141,35.589 L75.371,33.727 L78.615,30.492 C78.676,30.430 78.676,30.326 78.615,30.265 L74.912,26.571 C74.892,26.552 74.708,26.551 74.689,26.571 L71.443,29.809 L69.451,28.988 L69.451,24.409 C69.451,24.322 69.378,24.249 69.293,24.249 L64.056,24.249 C63.970,24.249 63.897,24.322 63.897,24.409 L63.897,28.988 L61.905,29.809 L58.660,26.573 C58.597,26.510 58.500,26.511 58.436,26.573 L54.733,30.266 C54.705,30.295 54.686,30.340 54.686,30.380 C54.686,30.421 54.704,30.465 54.732,30.493 L57.978,33.729 L57.153,35.713 L52.564,35.714 C52.476,35.714 52.405,35.785 52.405,35.872 L52.405,41.097 C52.405,41.142 52.421,41.178 52.452,41.210 C52.481,41.238 52.524,41.256 52.564,41.256 L57.155,41.255 L57.977,43.240 L54.734,46.476 C54.673,46.538 54.673,46.642 54.734,46.704 L58.437,50.398 C58.449,50.408 58.639,50.418 58.660,50.398 L61.906,47.159 L63.897,47.983 L63.897,52.559 C63.897,52.645 63.970,52.718 64.056,52.718 L69.294,52.719 C69.392,52.719 69.465,52.646 69.465,52.559 L69.452,52.375 L69.451,47.980 L71.443,47.159 L74.689,50.396 C74.752,50.458 74.850,50.458 74.913,50.396 L78.593,46.724 C78.570,46.588 78.544,46.462 78.518,46.378 L75.370,43.240 L76.253,41.112 L80.837,42.009 C80.898,41.987 80.943,41.927 80.943,41.859 L80.943,36.635 ZM66.674,44.352 C63.430,44.352 60.790,41.720 60.790,38.484 C60.790,35.249 63.430,32.616 66.674,32.616 C69.919,32.616 72.558,35.249 72.558,38.484 C72.558,41.720 69.919,44.352 66.674,44.352 ZM66.674,34.665 C64.564,34.665 62.847,36.378 62.847,38.484 C62.847,40.590 64.564,42.303 66.674,42.303 C68.785,42.303 70.501,40.590 70.501,38.484 C70.501,36.378 68.785,34.665 66.674,34.665 ZM48.397,48.688 C48.793,49.082 49.011,49.608 49.011,50.168 L49.011,54.903 C49.011,56.059 48.068,57.000 46.909,57.000 L46.711,56.980 L45.336,56.712 L46.333,57.705 C46.940,58.313 46.948,59.864 46.948,59.879 C46.948,60.555 46.517,60.826 46.332,60.912 L45.885,61.117 L42.981,64.017 C42.185,64.811 40.801,64.811 40.006,64.016 L38.612,62.625 L38.613,64.375 C38.619,64.425 38.624,64.512 38.624,64.597 C38.624,65.754 37.681,66.695 36.522,66.695 L31.771,66.694 C30.611,66.694 29.668,65.753 29.668,64.597 L29.668,62.626 L28.275,64.018 C27.514,64.782 26.064,64.784 25.299,64.017 L21.949,60.671 C21.130,59.855 21.130,58.525 21.949,57.707 L23.349,56.309 L21.372,56.309 C20.818,56.309 20.276,56.085 19.885,55.695 C19.487,55.298 19.269,54.771 19.269,54.213 L19.269,49.479 C19.269,48.322 20.212,47.382 21.371,47.382 L23.348,47.381 L21.948,45.985 C21.557,45.594 21.333,45.054 21.333,44.502 C21.333,43.950 21.557,43.409 21.949,43.020 L25.299,39.672 C26.096,38.879 27.478,38.879 28.273,39.672 L29.668,41.064 L29.668,39.091 C29.668,37.935 30.611,36.995 31.771,36.995 L36.510,36.995 C37.669,36.995 38.612,37.935 38.612,39.091 L38.612,41.064 L40.006,39.671 C40.772,38.907 42.215,38.907 42.981,39.671 L46.332,43.018 C47.149,43.835 47.150,45.164 46.333,45.982 L44.693,47.619 L47.025,48.075 C47.538,48.104 48.033,48.324 48.397,48.688 ZM46.955,50.168 L46.855,50.168 L46.711,50.101 L42.636,49.305 L41.895,47.513 L44.876,44.536 C44.894,44.518 44.894,44.484 44.876,44.465 L41.525,41.118 L41.452,41.127 L38.478,44.099 L36.555,43.304 L36.555,39.091 L31.771,39.043 L31.725,43.303 L29.802,44.099 L26.818,41.120 L23.404,44.468 L22.676,45.261 L23.404,44.538 L26.386,47.513 L25.590,49.430 L21.372,49.431 L21.326,54.213 L25.591,54.259 L26.385,56.177 L23.405,59.154 C23.387,59.172 23.386,59.205 23.404,59.223 L26.756,62.571 L26.829,62.564 L29.802,59.590 L31.725,60.388 L31.725,64.597 L36.511,64.646 L36.567,64.597 L36.556,64.430 L36.555,60.385 L38.479,59.591 L41.462,62.570 L44.821,59.278 C44.805,59.189 44.788,59.108 44.771,59.047 L41.894,56.177 L42.749,54.117 L46.940,54.937 C46.949,54.928 46.955,54.916 46.955,54.903 L46.955,50.168 ZM34.140,57.258 C31.150,57.258 28.718,54.829 28.718,51.844 C28.718,48.860 31.150,46.432 34.140,46.432 C37.130,46.432 39.562,48.860 39.562,51.844 C39.562,54.829 37.130,57.258 34.140,57.258 ZM34.140,48.481 C32.285,48.481 30.775,49.990 30.775,51.844 C30.775,53.700 32.285,55.209 34.140,55.209 C35.996,55.209 37.506,53.700 37.506,51.844 C37.506,49.990 35.996,48.481 34.140,48.481 ZM74.020,14.000 L70.311,14.000 C70.311,14.000 70.310,14.000 70.310,14.000 L2.807,14.000 L2.807,78.400 C2.807,79.946 4.064,81.200 5.614,81.200 L71.213,81.200 C72.763,81.200 74.020,79.946 74.020,78.400 L74.020,57.750 L76.827,57.750 L76.827,78.400 C76.827,81.493 74.313,84.000 71.213,84.000 L5.614,84.000 C2.513,84.000 -0.000,81.493 -0.000,78.400 L-0.000,12.600 L-0.000,5.600 L-0.000,5.075 C-0.000,4.894 0.037,4.722 0.100,4.563 C0.588,1.966 2.869,-0.000 5.614,-0.000 L71.213,-0.000 C74.313,-0.000 76.827,2.507 76.827,5.600 L76.827,11.637 L76.827,12.600 L76.827,20.344 L74.020,20.344 L74.020,14.000 ZM74.020,5.600 C74.020,4.054 72.763,2.800 71.213,2.800 L5.614,2.800 C4.064,2.800 2.807,4.054 2.807,5.600 L2.807,11.200 L65.597,11.200 C65.597,11.200 65.598,11.200 65.599,11.200 L74.020,11.200 L74.020,5.600 ZM22.457,8.400 L21.053,8.400 C20.278,8.400 19.650,7.773 19.650,7.000 C19.650,6.227 20.278,5.600 21.053,5.600 L21.053,5.600 L22.457,5.600 C23.232,5.600 23.860,6.227 23.860,7.000 C23.860,7.773 23.232,8.400 22.457,8.400 ZM15.439,8.400 L14.035,8.400 C13.260,8.400 12.632,7.773 12.632,7.000 C12.632,6.227 13.260,5.600 14.035,5.600 L15.439,5.600 C16.214,5.600 16.842,6.227 16.842,7.000 C16.842,7.773 16.214,8.400 15.439,8.400 ZM8.421,8.400 L7.018,8.400 C6.242,8.400 5.614,7.773 5.614,7.000 C5.614,6.227 6.242,5.600 7.018,5.600 L8.421,5.600 C9.196,5.600 9.825,6.227 9.825,7.000 C9.825,7.773 9.196,8.400 8.421,8.400 Z"/>
</svg>