<svg 
 xmlns="http://www.w3.org/2000/svg"
 xmlns:xlink="http://www.w3.org/1999/xlink"
 width="71px" height="78px">
<path fill-rule="evenodd"  fill="rgb(0, 158, 236)"
 d="M70.993,72.800 C70.993,75.672 68.670,78.000 65.805,78.000 L5.188,78.000 C2.323,78.000 0.000,75.672 0.000,72.800 L0.000,11.700 L0.000,5.200 L0.000,4.712 C0.000,4.544 0.034,4.385 0.092,4.237 C0.543,1.826 2.651,-0.000 5.188,-0.000 L65.805,-0.000 C68.670,-0.000 70.993,2.328 70.993,5.200 L70.993,10.806 L70.993,11.700 L70.960,18.390 L70.993,72.800 ZM68.399,5.200 C68.399,3.764 67.238,2.600 65.805,2.600 L5.188,2.600 C3.755,2.600 2.594,3.764 2.594,5.200 L2.594,10.400 L60.616,10.400 C60.616,10.400 60.617,10.400 60.617,10.400 L68.399,10.400 L68.399,5.200 ZM68.399,13.000 L64.972,13.000 C64.972,13.000 64.971,13.000 64.971,13.000 L2.594,13.000 L2.594,72.800 C2.594,74.236 3.755,75.400 5.188,75.400 L65.805,75.400 C67.238,75.400 68.399,74.236 68.399,72.800 L68.426,18.390 L68.399,13.000 ZM26.078,47.611 L26.078,46.489 L26.078,45.368 L47.408,45.368 L51.430,32.368 L24.223,32.368 L24.223,46.489 L24.223,49.931 L24.223,52.858 C24.962,52.230 25.921,51.850 26.967,51.850 C28.165,51.850 29.247,52.348 30.017,53.146 L37.470,53.146 C38.240,52.348 39.322,51.850 40.520,51.850 C41.718,51.850 42.801,52.348 43.571,53.146 L46.058,53.146 L46.058,55.388 L44.695,55.388 C44.730,55.603 44.748,55.823 44.748,56.047 C44.748,58.361 42.851,60.243 40.520,60.243 C38.189,60.243 36.293,58.361 36.293,56.047 C36.293,55.823 36.311,55.603 36.345,55.388 L31.142,55.388 C31.176,55.603 31.194,55.823 31.194,56.047 C31.194,58.361 29.298,60.243 26.967,60.243 C24.636,60.243 22.740,58.361 22.740,56.047 C22.740,55.823 22.758,55.603 22.792,55.388 L21.964,55.388 L21.964,54.267 L21.964,49.931 L21.964,49.131 L21.964,46.489 L21.964,30.711 L17.666,29.584 L17.107,29.437 L17.684,27.269 L24.223,28.985 L24.223,30.125 L54.487,30.125 L49.078,47.611 L26.078,47.611 ZM40.521,58.001 C41.606,58.001 42.489,57.124 42.489,56.047 C42.489,54.969 41.606,54.093 40.521,54.093 C39.435,54.093 38.552,54.969 38.552,56.047 C38.552,57.124 39.435,58.001 40.521,58.001 ZM26.967,58.001 C28.053,58.001 28.936,57.124 28.936,56.047 C28.936,54.969 28.053,54.093 26.967,54.093 C25.882,54.093 24.999,54.969 24.999,56.047 C24.999,57.124 25.882,58.001 26.967,58.001 ZM20.752,7.800 L19.455,7.800 C18.738,7.800 18.158,7.218 18.158,6.500 C18.158,5.782 18.738,5.200 19.455,5.200 L20.752,5.200 C21.468,5.200 22.049,5.782 22.049,6.500 C22.049,7.218 21.468,7.800 20.752,7.800 ZM14.267,7.800 L12.970,7.800 C12.254,7.800 11.673,7.218 11.673,6.500 C11.673,5.782 12.254,5.200 12.970,5.200 L14.267,5.200 C14.983,5.200 15.564,5.782 15.564,6.500 C15.564,7.218 14.983,7.800 14.267,7.800 ZM7.782,7.800 L6.485,7.800 C5.769,7.800 5.188,7.218 5.188,6.500 C5.188,5.782 5.769,5.200 6.485,5.200 L7.782,5.200 C8.498,5.200 9.079,5.782 9.079,6.500 C9.079,7.218 8.498,7.800 7.782,7.800 Z"/>
</svg>